<?xml version="1.0" encoding="utf-8"?>
<svg viewBox="353.842 279.548 288.303 61.604" xmlns="http://www.w3.org/2000/svg">
  <path d="M 0 0 L 0 0 L 1.232 -1.232 L 1.232 -61.604 L -59.132 -61.604 L -60.364 -60.372 L 0 -60.372 Z" style="fill: rgb(155, 156, 159); fill-rule: evenodd; fill-opacity: 1;" transform="matrix(1, 0, 0, -1, 414.205597, 279.547668)"/>
  <path d="M 0 0 L -38.125 4.025 L -38.125 3.951 C -36.401 3.227 -35.903 1.15 -37.215 -0.171 L 0 -0.171 Z M -37.215 -45.258 L -37.386 -45.258 L -41.127 1.058 L -41.04 1.058 C -40.393 -0.746 -38.66 -1.2 -37.215 -0.171 Z M -16.444 -7.202 C -16.608 -7.282 -16.768 -7.416 -16.893 -7.556 C -17.076 -7.777 -17.667 -7.667 -18.004 -7.768 C -18.209 -7.83 -18.305 -7.915 -18.319 -7.877 C -18.217 -7.668 -18.146 -7.458 -17.974 -7.296 C -17.601 -6.941 -16.475 -6.693 -16.444 -7.202 M 0 -4.403 L -19.032 -4.403 L -19.032 -7.033 C -18.582 -6.794 -18.217 -6.583 -17.733 -6.445 C -17.412 -6.354 -17.064 -6.256 -16.723 -6.291 C -16.226 -6.341 -16.042 -6.675 -16.096 -7.022 C -15.657 -6.787 -14.83 -6.656 -14.432 -7.02 C -14.051 -7.369 -13.974 -7.939 -14.1 -8.413 C -14.543 -7.938 -15.114 -7.817 -15.717 -8.112 C -16.169 -8.333 -16.545 -8.723 -16.751 -9.179 C -16.556 -9.402 -15.929 -9.224 -15.713 -9.112 C -15.476 -8.989 -15.268 -8.791 -15.002 -8.502 C -15.036 -8.932 -15.087 -9.331 -15.243 -9.542 C -15.539 -9.945 -15.834 -10.027 -16.338 -10.203 C -16.73 -10.339 -17.127 -10.529 -17.517 -10.925 C -17.854 -11.372 -17.939 -12.147 -17.836 -12.805 C -17.722 -13.529 -17.456 -14.292 -17.231 -15.042 C -17.007 -15.792 -16.824 -16.53 -16.877 -17.205 C -15.723 -17.392 -13.868 -16.105 -13.217 -15.579 C -12.495 -14.997 -11.754 -14.319 -11.397 -13.66 C -11.105 -13.124 -11.02 -12.031 -11.567 -11.178 C -12.604 -9.564 -12.038 -6.959 -9.842 -6.296 C -8.494 -5.903 -6.642 -6.28 -5.809 -7.782 C -4.999 -9.246 -4.812 -10.894 -4.836 -12.622 C -4.875 -15.269 -4.98 -16.915 -4.488 -18.89 C -4.248 -19.857 -3.795 -20.75 -3.079 -21.57 C -3.641 -22.237 -4.582 -21.779 -5.304 -21.162 C -6.375 -20.248 -7.289 -18.185 -7.877 -14.867 L -7.991 -15.277 C -8.017 -17.275 -7.756 -18.803 -7.325 -20.586 C -6.888 -22.392 -6.252 -23.442 -4.705 -24.625 C -5.555 -25.392 -6.413 -25.061 -7.162 -24.491 C -8.65 -23.357 -9.291 -22.069 -9.9 -19.466 L -10.011 -19.612 C -10.142 -21.139 -9.981 -22.652 -9.492 -24.024 C -9.023 -25.337 -8.117 -26.594 -6.949 -27.549 C -7.742 -28.265 -8.607 -27.791 -9.327 -27.27 C -10.343 -26.533 -11.86 -25.108 -12.346 -22.316 L -12.474 -22.426 C -12.525 -24.023 -12.376 -25.46 -12.031 -26.695 C -11.679 -27.957 -10.61 -29.457 -9.536 -30.179 C -10.43 -30.936 -11.239 -30.471 -11.893 -29.968 C -13.632 -28.629 -14.727 -26.738 -15.127 -24.227 L -15.283 -24.306 C -15.47 -27.034 -15.458 -30.027 -13.013 -31.772 L -13.983 -32.384 L -13.417 -33.348 C -13.167 -33.773 -10.905 -32.614 -9.985 -33.348 C -9.614 -33.644 -9.375 -34.119 -9.643 -34.721 L -9.699 -34.697 C -9.723 -34.272 -9.938 -34.048 -10.22 -33.931 C -10.629 -33.762 -11.255 -33.807 -11.723 -34.343 C -12.631 -34.958 -13.271 -34.521 -13.74 -35.135 C -14.018 -35.499 -14.012 -35.819 -13.895 -36.178 L -13.941 -36.207 C -15.192 -35.552 -14.022 -34.34 -14.254 -33.936 L -14.863 -32.868 L -15.842 -33.461 C -15.931 -32.745 -17.046 -28.94 -17.72 -28.683 C -17.895 -28.934 -17.886 -29.6 -17.912 -30.059 C -17.948 -30.699 -17.653 -31.168 -17.717 -32.063 C -17.745 -32.453 -17.94 -32.991 -18.252 -33.526 C -17.945 -33.727 -17.806 -34.042 -17.813 -34.409 C -17.822 -34.82 -18.006 -35.297 -18.134 -35.684 C -18.298 -36.185 -18.441 -36.564 -18.252 -36.564 C -17.716 -36.285 -17.213 -36.235 -16.78 -36.36 C -16.153 -36.541 -15.756 -37.138 -15.19 -37.43 C -14.536 -37.767 -13.979 -37.708 -13.231 -37.993 C -14.251 -38.383 -14.398 -39.427 -15.785 -39.211 C -16.619 -39.082 -17.869 -37.505 -18.097 -37.636 C -18.256 -38.103 -18.153 -38.648 -18.065 -39.383 C -18.021 -39.75 -17.977 -40.166 -17.974 -40.642 C -17.969 -41.118 -18.004 -41.657 -18.108 -42.27 C -18.248 -43.089 -18.544 -44.138 -19.021 -45.258 L -19.009 -45.258 C -0.294 -39.001 -0.157 -12.8 0 -4.403 M -8.519 -9.083 C -8.903 -9.083 -9.217 -8.751 -9.217 -8.344 C -9.217 -7.937 -8.903 -7.604 -8.519 -7.604 C -8.133 -7.604 -7.818 -7.937 -7.818 -8.344 C -7.818 -8.751 -8.133 -9.083 -8.519 -9.083 M -9.803 -10.383 C -9.418 -10.383 -9.103 -10.052 -9.103 -9.644 C -9.103 -9.237 -9.418 -8.904 -9.803 -8.904 C -10.188 -8.904 -10.502 -9.237 -10.502 -9.644 C -10.502 -10.052 -10.188 -10.383 -9.803 -10.383 M -7.431 -10.596 C -7.045 -10.596 -6.731 -10.264 -6.731 -9.856 C -6.731 -9.449 -7.045 -9.117 -7.431 -9.117 C -7.815 -9.117 -8.129 -9.449 -8.129 -9.856 C -8.129 -10.264 -7.815 -10.596 -7.431 -10.596 M -8.551 -9.476 C -8.69 -16.487 -12.067 -21.938 -19.028 -22.378 L -19.028 -20.415 C -13.394 -20.234 -9.181 -14.674 -8.667 -9.476 Z M -21.619 -7.202 C -21.455 -7.282 -21.295 -7.416 -21.17 -7.555 C -20.987 -7.776 -20.396 -7.667 -20.06 -7.768 C -19.854 -7.83 -19.758 -7.915 -19.744 -7.877 C -19.846 -7.668 -19.918 -7.458 -20.089 -7.296 C -20.462 -6.941 -21.589 -6.693 -21.619 -7.202 M -19.042 -45.258 L -19.053 -45.258 C -19.529 -44.14 -19.816 -43.087 -19.955 -42.27 C -20.059 -41.658 -20.094 -41.118 -20.09 -40.642 C -20.086 -40.165 -20.043 -39.75 -19.999 -39.383 C -19.911 -38.648 -19.808 -38.103 -19.967 -37.636 C -20.194 -37.505 -21.445 -39.082 -22.279 -39.211 C -23.666 -39.427 -23.812 -38.383 -24.833 -37.993 C -24.084 -37.708 -23.527 -37.767 -22.874 -37.43 C -22.308 -37.138 -21.91 -36.541 -21.284 -36.36 C -20.851 -36.235 -20.347 -36.285 -19.811 -36.563 C -19.623 -36.563 -19.766 -36.185 -19.93 -35.684 C -20.057 -35.296 -20.241 -34.82 -20.25 -34.409 C -20.257 -34.042 -20.118 -33.727 -19.811 -33.526 C -20.123 -32.991 -20.318 -32.453 -20.346 -32.063 C -20.41 -31.167 -20.116 -30.699 -20.152 -30.059 C -20.178 -29.6 -20.168 -28.934 -20.343 -28.683 C -21.017 -28.94 -22.132 -32.745 -22.221 -33.46 L -23.201 -32.868 L -23.81 -33.936 C -24.041 -34.34 -22.872 -35.552 -24.123 -36.207 L -24.169 -36.178 C -24.051 -35.819 -24.045 -35.499 -24.323 -35.135 C -24.792 -34.521 -25.432 -34.957 -26.34 -34.343 C -26.809 -33.807 -27.434 -33.761 -27.843 -33.931 C -28.125 -34.048 -28.34 -34.271 -28.365 -34.697 L -28.42 -34.72 C -28.688 -34.119 -28.449 -33.643 -28.079 -33.348 C -27.159 -32.614 -24.897 -33.772 -24.647 -33.348 L -24.08 -32.384 L -25.05 -31.772 C -22.606 -30.026 -22.594 -27.034 -22.781 -24.306 L -22.937 -24.227 C -23.336 -26.738 -24.431 -28.629 -26.17 -29.968 C -26.825 -30.471 -27.634 -30.936 -28.528 -30.178 C -27.453 -29.457 -26.384 -27.956 -26.032 -26.695 C -25.687 -25.46 -25.538 -24.023 -25.59 -22.426 L -25.717 -22.316 C -26.203 -25.108 -27.72 -26.533 -28.736 -27.27 C -29.456 -27.791 -30.321 -28.264 -31.115 -27.549 C -29.946 -26.594 -29.04 -25.337 -28.572 -24.024 C -28.083 -22.652 -27.922 -21.139 -28.052 -19.612 L -28.164 -19.466 C -28.772 -22.069 -29.413 -23.357 -30.902 -24.491 C -31.65 -25.061 -32.509 -25.391 -33.358 -24.625 C -31.812 -23.442 -31.176 -22.392 -30.739 -20.586 C -30.307 -18.803 -30.046 -17.275 -30.073 -15.277 L -30.187 -14.867 C -30.774 -18.185 -31.688 -20.248 -32.759 -21.162 C -33.482 -21.779 -34.422 -22.236 -34.984 -21.57 C -34.269 -20.75 -33.816 -19.857 -33.575 -18.889 C -33.083 -16.915 -33.189 -15.269 -33.227 -12.622 C -33.251 -10.894 -33.064 -9.246 -32.254 -7.782 C -31.422 -6.28 -29.569 -5.903 -28.222 -6.296 C -26.025 -6.959 -25.459 -9.564 -26.496 -11.178 C -27.044 -12.031 -26.958 -13.124 -26.667 -13.66 C -26.309 -14.318 -25.568 -14.997 -24.847 -15.579 C -24.195 -16.105 -22.34 -17.391 -21.186 -17.205 C -21.24 -16.529 -21.057 -15.792 -20.833 -15.041 C -20.608 -14.292 -20.341 -13.528 -20.228 -12.805 C -20.125 -12.147 -20.209 -11.372 -20.546 -10.925 C -20.936 -10.529 -21.333 -10.339 -21.726 -10.203 C -22.229 -10.027 -22.524 -9.945 -22.821 -9.542 C -22.976 -9.331 -23.028 -8.932 -23.062 -8.502 C -22.796 -8.791 -22.587 -8.988 -22.35 -9.112 C -22.135 -9.224 -21.507 -9.402 -21.312 -9.178 C -21.518 -8.723 -21.895 -8.333 -22.346 -8.112 C -22.949 -7.817 -23.52 -7.938 -23.964 -8.413 C -24.09 -7.939 -24.012 -7.369 -23.631 -7.02 C -23.233 -6.656 -22.406 -6.787 -21.967 -7.022 C -22.021 -6.675 -21.838 -6.341 -21.34 -6.29 C -21 -6.255 -20.652 -6.354 -20.33 -6.445 C -19.846 -6.583 -19.482 -6.793 -19.032 -7.033 Z M -29.545 -9.083 C -29.16 -9.083 -28.846 -8.751 -28.846 -8.344 C -28.846 -7.937 -29.16 -7.604 -29.545 -7.604 C -29.931 -7.604 -30.245 -7.937 -30.245 -8.344 C -30.245 -8.751 -29.931 -9.083 -29.545 -9.083 M -28.261 -10.383 C -28.646 -10.383 -28.96 -10.051 -28.96 -9.644 C -28.96 -9.237 -28.646 -8.904 -28.261 -8.904 C -27.875 -8.904 -27.562 -9.237 -27.562 -9.644 C -27.562 -10.051 -27.875 -10.383 -28.261 -10.383 M -30.633 -10.595 C -31.018 -10.595 -31.332 -10.264 -31.332 -9.856 C -31.332 -9.449 -31.018 -9.117 -30.633 -9.117 C -30.248 -9.117 -29.934 -9.449 -29.934 -9.856 C -29.934 -10.264 -30.248 -10.595 -30.633 -10.595 M -29.512 -9.476 C -29.373 -16.487 -25.996 -21.938 -19.036 -22.378 L -19.035 -20.415 C -24.669 -20.234 -28.882 -14.674 -29.397 -9.476 Z" style="fill: rgb(155, 156, 159); fill-rule: evenodd; fill-opacity: 1;" transform="matrix(1, 0, 0, -1, 403.970215, 288.501221)"/>
  <path d="M 0 0 C 0 -0.299 -0.021 -0.556 -0.363 -0.898 C -0.92 -1.455 -1.775 -1.818 -2.46 -1.818 C -3.615 -1.818 -4.321 -1.091 -4.321 0.171 C -4.321 1.819 -3.017 2.204 0 2.696 Z M 2.846 -2.139 L 2.76 -1.732 C 2.632 -1.754 2.504 -1.754 2.396 -1.754 C 1.604 -1.754 1.477 -1.369 1.477 -0.363 L 1.477 0.214 L 1.562 3.787 L 1.562 4.044 C 1.562 6.419 0.642 7.553 -1.732 7.553 C -3.038 7.553 -4.215 7.146 -5.113 6.376 L -5.156 5.285 L -4.984 5.285 C -4.343 6.269 -3.444 6.761 -2.289 6.761 C -0.599 6.761 0.043 5.862 0.043 4.022 L 0.043 3.573 C -0.492 3.103 -1.754 3.017 -3.594 2.632 C -5.241 2.268 -6.033 1.391 -6.033 -0.106 C -6.033 -1.732 -5.006 -2.677 -3.145 -2.677 C -1.946 -2.677 -0.898 -2.182 -0.021 -1.262 C 0.107 -2.096 0.406 -2.481 1.134 -2.481 C 1.733 -2.481 2.268 -2.311 2.846 -2.139 M -6.804 -2.485 C -8.687 -0.257 -10.333 1.651 -11.725 3.277 L -9.842 5.057 C -8.707 6.126 -7.83 6.918 -7.124 7.389 C -7.424 7.346 -7.744 7.324 -8.044 7.324 C -8.344 7.324 -8.644 7.346 -8.964 7.389 C -11.253 4.475 -12.943 3.127 -13.328 3.127 C -13.563 3.127 -13.671 3.256 -13.671 3.491 L -13.671 4.197 C -13.671 6.811 -13.649 9.795 -13.563 13.183 C -13.842 13.14 -14.142 13.098 -14.441 13.098 C -14.719 13.098 -15.019 13.14 -15.318 13.183 C -15.232 10.541 -15.211 7.941 -15.211 5.377 C -15.211 3.363 -15.232 0.752 -15.318 -2.485 C -15.019 -2.417 -14.719 -2.375 -14.441 -2.375 C -14.142 -2.375 -13.842 -2.417 -13.563 -2.485 C -13.671 -0.855 -13.671 0.407 -13.671 1.245 L -13.671 2.421 C -13.671 2.614 -13.671 2.699 -13.479 2.699 C -13.157 2.699 -11.639 1.01 -9.05 -2.485 C -8.707 -2.417 -8.344 -2.396 -7.979 -2.396 C -7.595 -2.396 -7.188 -2.417 -6.804 -2.485 M -17.437 0.621 C -17.437 1.926 -18.078 2.61 -19.447 3.017 L -20.881 3.444 C -21.951 3.766 -22.465 4.236 -22.465 5.199 C -22.465 6.248 -21.736 6.954 -20.688 6.954 C -19.854 6.954 -19.062 6.483 -18.271 5.563 C -18.186 6.012 -18.035 6.44 -17.821 6.889 C -18.527 7.317 -19.426 7.574 -20.432 7.574 C -22.4 7.574 -23.641 6.354 -23.641 4.686 C -23.641 3.209 -22.956 2.439 -21.373 1.99 L -20.41 1.712 C -19.298 1.413 -18.763 0.984 -18.763 0 C -18.763 -1.176 -19.555 -1.904 -20.796 -1.904 C -21.801 -1.904 -22.657 -1.369 -23.342 -0.299 C -23.47 -0.834 -23.641 -1.369 -23.855 -1.925 C -23.127 -2.417 -22.187 -2.677 -21.138 -2.677 C -18.913 -2.677 -17.437 -1.241 -17.437 0.621 M -24.39 7.389 C -24.582 7.367 -24.796 7.346 -25.01 7.346 C -25.224 7.346 -25.417 7.367 -25.652 7.389 C -26.957 3.556 -27.963 1.01 -28.562 -0.235 C -29.225 1.117 -30.166 3.662 -31.172 7.389 C -31.386 7.346 -31.6 7.324 -31.792 7.324 C -31.984 7.324 -32.198 7.346 -32.413 7.389 C -33.204 4.604 -34.104 2.058 -35.151 -0.257 C -36.542 3.32 -37.397 5.87 -37.762 7.389 C -38.082 7.324 -38.403 7.303 -38.703 7.303 C -39.023 7.303 -39.323 7.324 -39.623 7.389 C -37.611 2.507 -36.393 -0.791 -35.985 -2.485 C -35.771 -2.438 -35.601 -2.438 -35.387 -2.438 C -35.194 -2.438 -34.979 -2.438 -34.787 -2.485 C -34.359 -0.685 -33.504 1.844 -32.156 5.078 C -30.552 0.795 -29.717 -1.711 -29.589 -2.485 C -29.375 -2.438 -29.182 -2.417 -28.989 -2.417 C -28.775 -2.417 -28.562 -2.438 -28.348 -2.485 C -27.834 -0.534 -26.443 2.721 -24.39 7.389 M -43.089 0 C -43.089 -0.299 -43.11 -0.556 -43.452 -0.898 C -44.009 -1.455 -44.864 -1.818 -45.549 -1.818 C -46.704 -1.818 -47.41 -1.091 -47.41 0.171 C -47.41 1.819 -46.105 2.204 -43.089 2.696 Z M -40.243 -2.139 L -40.329 -1.732 C -40.457 -1.754 -40.586 -1.754 -40.692 -1.754 C -41.484 -1.754 -41.612 -1.369 -41.612 -0.363 L -41.612 0.214 L -41.526 3.787 L -41.526 4.044 C -41.526 6.419 -42.447 7.553 -44.821 7.553 C -46.127 7.553 -47.304 7.146 -48.202 6.376 L -48.244 5.285 L -48.073 5.285 C -47.432 6.269 -46.533 6.761 -45.378 6.761 C -43.688 6.761 -43.046 5.862 -43.046 4.022 L -43.046 3.573 C -43.581 3.103 -44.843 3.017 -46.683 2.632 C -48.33 2.268 -49.122 1.391 -49.122 -0.106 C -49.122 -1.732 -48.096 -2.677 -46.233 -2.677 C -45.035 -2.677 -43.987 -2.182 -43.11 -1.262 C -42.981 -2.096 -42.683 -2.481 -41.955 -2.481 C -41.355 -2.481 -40.821 -2.311 -40.243 -2.139 M -50.106 7.841 L -50.106 8.951 C -50.406 8.693 -50.897 8.269 -51.625 7.756 L -51.625 7.991 C -51.625 9.978 -51.582 11.856 -51.519 13.183 C -51.797 13.162 -52.117 13.14 -52.417 13.14 C -52.674 13.14 -52.973 13.162 -53.252 13.183 C -53.166 11.454 -53.145 9.485 -53.145 7.264 L -53.145 6.708 C -53.765 6.279 -53.957 6.151 -54.599 5.766 L -54.599 4.679 C -53.7 5.406 -53.252 5.788 -53.166 5.83 L -53.166 2.796 C -53.166 0.489 -53.208 -1.262 -53.252 -2.485 C -52.973 -2.438 -52.695 -2.417 -52.417 -2.417 C -52.117 -2.417 -51.817 -2.438 -51.519 -2.485 C -51.582 -1.155 -51.625 1.858 -51.625 6.878 C -50.983 7.285 -50.813 7.414 -50.106 7.841 M -55.263 6.74 C -56.354 7.296 -57.487 7.574 -58.664 7.574 C -61.788 7.574 -63.863 5.542 -63.863 2.439 C -63.863 -0.685 -61.873 -2.699 -58.964 -2.699 C -57.487 -2.699 -56.332 -2.375 -55.391 -1.647 C -55.412 -1.519 -55.412 -1.369 -55.412 -1.219 C -55.412 -1.005 -55.391 -0.749 -55.369 -0.449 C -56.375 -1.476 -57.359 -1.968 -58.536 -1.968 C -60.696 -1.968 -62.173 -0.299 -62.173 2.46 C -62.173 5.306 -60.868 6.911 -58.664 6.911 C -57.359 6.911 -56.417 6.269 -55.818 4.943 C -55.69 5.605 -55.498 6.226 -55.263 6.74 M -67.115 2.332 C -67.115 -0.534 -68.228 -2.032 -70.281 -2.032 C -72.357 -2.032 -73.469 -0.492 -73.469 2.482 C -73.469 5.435 -72.357 6.954 -70.303 6.954 C -68.228 6.954 -67.115 5.371 -67.115 2.332 M -65.318 2.46 C -65.318 5.499 -67.372 7.574 -70.281 7.574 C -73.105 7.574 -75.245 5.499 -75.245 2.46 C -75.245 -0.599 -73.17 -2.677 -70.281 -2.677 C -67.436 -2.677 -65.318 -0.663 -65.318 2.46 M -76.229 7.381 C -76.571 7.446 -76.828 7.488 -77.021 7.488 C -78.048 7.488 -78.883 6.676 -79.631 5.092 C -79.631 5.948 -79.588 6.718 -79.524 7.381 C -79.802 7.317 -80.102 7.296 -80.401 7.296 C -80.68 7.296 -80.979 7.317 -81.3 7.381 C -81.214 6.483 -81.193 5.478 -81.193 4.365 C -81.193 1.305 -81.235 -0.984 -81.3 -2.46 C -81.021 -2.417 -80.765 -2.396 -80.508 -2.396 C -80.209 -2.396 -79.888 -2.417 -79.588 -2.485 C -79.652 -1.54 -79.695 -0.128 -79.695 1.733 C -79.695 4.579 -79.096 5.969 -77.513 5.969 C -77.171 5.969 -76.85 5.884 -76.508 5.691 L -76.336 5.798 C -76.336 6.397 -76.314 6.954 -76.229 7.381 M -82.07 11.81 C -82.305 11.746 -82.541 11.725 -82.776 11.725 C -83.012 11.725 -83.225 11.746 -83.439 11.81 C -84.487 7.724 -85.707 3.68 -87.076 -0.278 C -88.553 3.787 -89.879 7.831 -91.099 11.81 C -91.334 11.746 -91.569 11.725 -91.783 11.725 C -92.019 11.725 -92.232 11.746 -92.468 11.81 C -93.645 7.488 -94.971 3.402 -96.383 -0.492 C -97.752 3.745 -98.95 7.852 -100.02 11.81 C -100.341 11.746 -100.684 11.725 -101.004 11.725 C -101.347 11.725 -101.689 11.746 -102.01 11.81 C -100.384 6.718 -98.886 1.969 -97.538 -2.485 C -97.281 -2.417 -97.046 -2.375 -96.811 -2.375 C -96.554 -2.375 -96.318 -2.417 -96.084 -2.485 C -95.463 -0.77 -94.179 3.124 -92.168 9.2 C -90.734 5.221 -89.43 1.327 -88.317 -2.506 C -88.061 -2.417 -87.825 -2.396 -87.568 -2.396 C -87.312 -2.396 -87.076 -2.417 -86.841 -2.485 C -85.279 2.183 -83.717 6.932 -82.07 11.81 M -111.381 0 C -111.381 -0.299 -111.402 -0.556 -111.744 -0.898 C -112.301 -1.455 -113.156 -1.818 -113.842 -1.818 C -114.997 -1.818 -115.703 -1.091 -115.703 0.171 C -115.703 1.819 -114.397 2.204 -111.381 2.696 Z M -108.535 -2.139 L -108.621 -1.732 C -108.749 -1.754 -108.878 -1.754 -108.984 -1.754 C -109.776 -1.754 -109.904 -1.369 -109.904 -0.363 L -109.904 0.214 L -109.818 3.787 L -109.818 4.044 C -109.818 6.419 -110.739 7.553 -113.114 7.553 C -114.419 7.553 -115.596 7.146 -116.494 6.376 L -116.537 5.285 L -116.365 5.285 C -115.725 6.269 -114.825 6.761 -113.67 6.761 C -111.979 6.761 -111.338 5.862 -111.338 4.022 L -111.338 3.573 C -111.873 3.103 -113.136 3.017 -114.975 2.632 C -116.623 2.268 -117.414 1.391 -117.414 -0.106 C -117.414 -1.732 -116.388 -2.677 -114.526 -2.677 C -113.328 -2.677 -112.279 -2.182 -111.402 -1.262 C -111.273 -2.096 -110.975 -2.481 -110.247 -2.481 C -109.647 -2.481 -109.113 -2.311 -108.535 -2.139 M -118.185 -2.485 C -120.067 -0.257 -121.715 1.651 -123.105 3.277 L -121.223 5.057 C -120.089 6.126 -119.211 6.918 -118.505 7.389 C -118.805 7.346 -119.126 7.324 -119.426 7.324 C -119.725 7.324 -120.024 7.346 -120.346 7.389 C -122.635 4.475 -124.324 3.127 -124.71 3.127 C -124.945 3.127 -125.052 3.256 -125.052 3.491 L -125.052 4.197 C -125.052 6.811 -125.03 9.795 -124.945 13.183 C -125.223 13.14 -125.522 13.098 -125.822 13.098 C -126.101 13.098 -126.4 13.14 -126.699 13.183 C -126.613 10.541 -126.593 7.941 -126.593 5.377 C -126.593 3.363 -126.613 0.752 -126.699 -2.485 C -126.4 -2.417 -126.101 -2.375 -125.822 -2.375 C -125.522 -2.375 -125.223 -2.417 -124.945 -2.485 C -125.052 -0.855 -125.052 0.407 -125.052 1.245 L -125.052 2.421 C -125.052 2.614 -125.052 2.699 -124.859 2.699 C -124.538 2.699 -123.02 1.01 -120.431 -2.485 C -120.089 -2.417 -119.725 -2.396 -119.361 -2.396 C -118.976 -2.396 -118.569 -2.417 -118.185 -2.485 M -130.037 -2.485 C -130.102 -0.77 -130.144 0.966 -130.144 2.699 C -130.144 4.304 -130.102 5.848 -130.037 7.389 C -130.294 7.324 -130.594 7.303 -130.893 7.303 C -131.171 7.303 -131.449 7.324 -131.749 7.389 C -131.685 5.87 -131.642 4.304 -131.642 2.699 C -131.642 0.966 -131.685 -0.77 -131.749 -2.485 C -131.449 -2.417 -131.171 -2.375 -130.893 -2.375 C -130.594 -2.375 -130.294 -2.417 -130.037 -2.485 M -129.823 11.019 C -129.823 11.618 -130.294 12.067 -130.893 12.067 C -131.471 12.067 -131.963 11.618 -131.963 11.019 C -131.963 10.441 -131.471 9.97 -130.893 9.97 C -130.294 9.97 -129.823 10.441 -129.823 11.019 M -135.043 -2.485 C -135.086 -1.305 -135.107 -0.213 -135.107 0.813 C -135.107 1.797 -135.064 2.824 -135.064 3.852 C -135.064 6.354 -136.178 7.595 -138.402 7.595 C -139.814 7.595 -140.884 6.932 -141.676 5.563 C -141.676 5.819 -141.697 6.076 -141.697 6.333 C -141.697 6.676 -141.676 7.018 -141.654 7.381 C -141.91 7.317 -142.189 7.296 -142.488 7.296 C -142.745 7.296 -143.045 7.317 -143.345 7.381 C -143.259 5.905 -143.259 4.343 -143.259 2.632 L -143.259 1.155 C -143.259 -0.106 -143.259 -1.305 -143.345 -2.485 C -143.045 -2.417 -142.767 -2.375 -142.488 -2.375 C -142.189 -2.375 -141.89 -2.417 -141.611 -2.485 C -141.654 -1.412 -141.654 -0.128 -141.654 1.434 L -141.654 2.375 C -141.654 3.766 -141.611 4.814 -140.948 5.627 C -140.478 6.248 -139.814 6.525 -139.001 6.525 C -137.418 6.525 -136.626 5.499 -136.626 3.444 C -136.626 0.963 -136.67 -1.026 -136.755 -2.485 C -136.455 -2.417 -136.178 -2.375 -135.898 -2.375 C -135.621 -2.375 -135.321 -2.417 -135.043 -2.485 M -146.446 -2.485 C -146.489 -1.091 -146.532 -0.021 -146.532 0.728 C -146.532 1.969 -146.468 3.038 -146.468 3.937 C -146.468 6.354 -147.58 7.574 -149.806 7.574 C -151.196 7.574 -152.159 6.997 -153.058 5.67 C -153.058 6.676 -153.079 7.638 -153.079 8.533 C -153.079 9.877 -153.058 11.436 -153.015 13.183 C -153.271 13.14 -153.571 13.098 -153.87 13.098 C -154.127 13.098 -154.427 13.14 -154.748 13.183 C -154.684 10.729 -154.641 8.13 -154.641 5.371 C -154.641 3.916 -154.662 1.305 -154.748 -2.485 C -154.47 -2.417 -154.191 -2.375 -153.913 -2.375 C -153.613 -2.375 -153.314 -2.417 -153.036 -2.485 C -153.058 -1.348 -153.079 -0.534 -153.079 -0.042 L -153.079 1.455 C -153.079 3.209 -153.036 4.429 -152.673 5.156 C -152.202 6.055 -151.41 6.525 -150.426 6.525 C -148.65 6.525 -148.051 5.435 -148.051 3.081 C -148.051 1.69 -148.094 -0.171 -148.158 -2.485 C -147.858 -2.417 -147.58 -2.375 -147.303 -2.375 C -147.003 -2.375 -146.703 -2.417 -146.446 -2.485 M -156.651 6.74 C -157.743 7.296 -158.877 7.574 -160.054 7.574 C -163.178 7.574 -165.253 5.542 -165.253 2.439 C -165.253 -0.685 -163.263 -2.699 -160.354 -2.699 C -158.877 -2.699 -157.722 -2.375 -156.78 -1.647 C -156.802 -1.519 -156.802 -1.369 -156.802 -1.219 C -156.802 -1.005 -156.78 -0.749 -156.759 -0.449 C -157.765 -1.476 -158.748 -1.968 -159.925 -1.968 C -162.086 -1.968 -163.562 -0.299 -163.562 2.46 C -163.562 5.306 -162.258 6.911 -160.054 6.911 C -158.748 6.911 -157.807 6.269 -157.208 4.943 C -157.08 5.605 -156.888 6.226 -156.651 6.74 M -168.462 3.316 L -173.96 3.316 C -173.874 5.563 -172.634 6.954 -171.071 6.954 C -169.468 6.954 -168.462 5.756 -168.462 3.659 Z M -166.771 3.038 C -166.771 5.969 -168.334 7.595 -170.986 7.595 C -173.896 7.595 -175.8 5.542 -175.8 2.439 C -175.8 -0.578 -173.811 -2.677 -170.858 -2.677 C -169.574 -2.677 -168.397 -2.268 -167.307 -1.476 L -167.307 -1.219 C -167.307 -0.984 -167.285 -0.706 -167.264 -0.428 C -168.248 -1.391 -169.274 -1.84 -170.494 -1.84 C -172.762 -1.84 -174.003 -0.321 -174.003 2.525 L -174.003 2.589 L -166.793 2.589 C -166.793 2.739 -166.771 2.889 -166.771 3.038 M -176.186 -1.989 L -176.335 -1.519 C -176.935 -1.818 -177.426 -1.968 -177.79 -1.968 C -179.116 -1.968 -179.544 -1.155 -179.544 0.688 C -179.544 2.593 -179.459 4.201 -179.459 5.527 C -179.459 5.634 -179.437 5.998 -179.416 6.576 C -179.202 6.597 -178.945 6.597 -178.667 6.597 C -178.133 6.597 -177.49 6.576 -176.741 6.533 L -176.741 6.704 C -176.741 6.96 -176.72 7.196 -176.678 7.389 C -177.726 7.303 -178.624 7.282 -179.395 7.282 L -179.395 8.647 C -179.395 8.861 -179.373 9.396 -179.33 10.291 C -179.822 10.056 -180.379 9.885 -181.021 9.778 C -180.999 9.225 -180.978 8.647 -180.978 8.03 L -180.978 7.324 C -181.405 7.324 -181.876 7.346 -182.305 7.389 C -182.305 7.303 -182.283 7.196 -182.283 7.068 C -182.283 6.896 -182.305 6.704 -182.325 6.511 C -181.962 6.554 -181.599 6.576 -181.234 6.576 L -181.021 6.576 L -181.021 5.87 C -181.021 3.127 -181.127 1.223 -181.127 0.175 C -181.127 -1.797 -180.4 -2.699 -178.453 -2.699 C -177.661 -2.699 -176.87 -2.438 -176.186 -1.989 M -184.315 -2.485 C -184.38 -0.77 -184.422 0.966 -184.422 2.699 C -184.422 4.304 -184.38 5.848 -184.315 7.389 C -184.572 7.324 -184.872 7.303 -185.171 7.303 C -185.449 7.303 -185.728 7.324 -186.026 7.389 C -185.963 5.87 -185.92 4.304 -185.92 2.699 C -185.92 0.966 -185.963 -0.77 -186.026 -2.485 C -185.728 -2.417 -185.449 -2.375 -185.171 -2.375 C -184.872 -2.375 -184.572 -2.417 -184.315 -2.485 M -184.102 11.019 C -184.102 11.618 -184.572 12.067 -185.171 12.067 C -185.748 12.067 -186.24 11.618 -186.24 11.019 C -186.24 10.441 -185.748 9.97 -185.171 9.97 C -184.572 9.97 -184.102 10.441 -184.102 11.019 M -189.321 -2.485 C -189.386 -0.667 -189.407 2.415 -189.407 6.75 C -189.407 9.122 -189.407 11.261 -189.321 13.183 C -189.6 13.162 -189.921 13.14 -190.22 13.14 C -190.477 13.14 -190.776 13.162 -191.055 13.183 C -190.969 12.028 -190.969 10.684 -190.969 9.1 L -190.969 3.609 C -190.969 0.938 -190.969 -1.091 -191.055 -2.485 C -190.776 -2.438 -190.498 -2.417 -190.22 -2.417 C -189.921 -2.417 -189.621 -2.438 -189.321 -2.485 M -195.141 2.332 C -195.141 -0.534 -196.253 -2.032 -198.307 -2.032 C -200.383 -2.032 -201.495 -0.492 -201.495 2.482 C -201.495 5.435 -200.383 6.954 -198.329 6.954 C -196.253 6.954 -195.141 5.371 -195.141 2.332 M -193.344 2.46 C -193.344 5.499 -195.397 7.574 -198.307 7.574 C -201.132 7.574 -203.271 5.499 -203.271 2.46 C -203.271 -0.599 -201.195 -2.677 -198.307 -2.677 C -195.462 -2.677 -193.344 -0.663 -193.344 2.46 M -205.453 8.044 C -205.453 5.862 -206.951 4.771 -209.946 4.771 C -210.267 4.771 -210.566 4.793 -210.888 4.814 L -210.888 6.697 C -210.888 8.216 -210.845 9.649 -210.78 10.997 C -210.331 11.04 -209.903 11.061 -209.475 11.061 C -206.716 11.061 -205.453 10.291 -205.453 8.044 M -203.484 8.216 C -203.484 10.526 -205.132 11.896 -208.17 11.896 C -209.454 11.896 -210.609 11.746 -211.657 11.746 C -211.957 11.746 -212.278 11.768 -212.685 11.81 C -212.599 9.585 -212.556 7.21 -212.556 4.643 C -212.556 2.204 -212.599 -0.171 -212.685 -2.485 C -212.32 -2.417 -211.979 -2.375 -211.636 -2.375 C -211.337 -2.375 -211.059 -2.417 -210.759 -2.46 C -210.845 -0.962 -210.865 0.214 -210.865 1.07 L -210.865 4.065 C -210.203 4.022 -209.646 4.022 -209.283 4.022 C -205.496 4.022 -203.484 5.563 -203.484 8.216" style="fill: rgb(155, 156, 159); fill-rule: evenodd; fill-opacity: 1;" transform="matrix(1, 0, 0, -1, 639.298828, 331.306824)"/>
</svg>