<?xml version="1.0" encoding="utf-8"?>
<svg viewBox="125.679 276.586 66.314 96.08" xmlns="http://www.w3.org/2000/svg">
  <path d="M 0 0 C 0 -0.188 -0.014 -0.349 -0.229 -0.563 C -0.579 -0.915 -1.116 -1.144 -1.547 -1.144 C -2.274 -1.144 -2.717 -0.687 -2.717 0.109 C -2.717 1.143 -1.897 1.386 0 1.695 Z M 1.788 -1.344 L 1.735 -1.089 C 1.654 -1.103 1.572 -1.103 1.506 -1.103 C 1.008 -1.103 0.927 -0.861 0.927 -0.229 L 0.927 0.134 L 0.98 2.38 L 0.98 2.543 C 0.98 4.036 0.403 4.748 -1.09 4.748 C -1.911 4.748 -2.649 4.493 -3.214 4.008 L -3.241 3.322 L -3.135 3.322 C -2.731 3.942 -2.166 4.25 -1.44 4.25 C -0.377 4.25 0.027 3.686 0.027 2.529 L 0.027 2.246 C -0.31 1.951 -1.103 1.897 -2.261 1.654 C -3.294 1.426 -3.792 0.874 -3.792 -0.066 C -3.792 -1.089 -3.147 -1.683 -1.977 -1.683 C -1.225 -1.683 -0.564 -1.372 -0.014 -0.792 C 0.066 -1.318 0.256 -1.56 0.713 -1.56 C 1.089 -1.56 1.424 -1.453 1.788 -1.344 M -4.277 -1.562 C -5.461 -0.161 -6.496 1.038 -7.372 2.061 L -6.187 3.18 C -5.475 3.851 -4.923 4.349 -4.479 4.646 C -4.667 4.618 -4.869 4.605 -5.058 4.605 C -5.246 4.605 -5.433 4.618 -5.635 4.646 C -7.075 2.813 -8.137 1.966 -8.38 1.966 C -8.528 1.966 -8.594 2.046 -8.594 2.195 L -8.594 2.638 C -8.594 4.283 -8.581 6.159 -8.528 8.287 C -8.703 8.261 -8.891 8.234 -9.079 8.234 C -9.254 8.234 -9.442 8.261 -9.63 8.287 C -9.578 6.627 -9.563 4.993 -9.563 3.381 C -9.563 2.115 -9.578 0.474 -9.63 -1.562 C -9.442 -1.519 -9.254 -1.492 -9.079 -1.492 C -8.891 -1.492 -8.703 -1.519 -8.528 -1.562 C -8.594 -0.539 -8.594 0.257 -8.594 0.783 L -8.594 1.523 C -8.594 1.644 -8.594 1.698 -8.474 1.698 C -8.271 1.698 -7.316 0.634 -5.69 -1.562 C -5.475 -1.519 -5.246 -1.506 -5.018 -1.506 C -4.775 -1.506 -4.519 -1.519 -4.277 -1.562 M -10.961 0.391 C -10.961 1.211 -11.365 1.641 -12.227 1.897 L -13.127 2.166 C -13.799 2.367 -14.123 2.664 -14.123 3.27 C -14.123 3.927 -13.665 4.372 -13.006 4.372 C -12.481 4.372 -11.985 4.076 -11.487 3.499 C -11.432 3.78 -11.337 4.049 -11.205 4.331 C -11.648 4.6 -12.213 4.762 -12.844 4.762 C -14.083 4.762 -14.862 3.996 -14.862 2.946 C -14.862 2.017 -14.431 1.534 -13.436 1.251 L -12.831 1.077 C -12.131 0.888 -11.795 0.62 -11.795 0 C -11.795 -0.739 -12.293 -1.197 -13.073 -1.197 C -13.705 -1.197 -14.243 -0.861 -14.674 -0.188 C -14.753 -0.523 -14.862 -0.861 -14.996 -1.209 C -14.539 -1.519 -13.948 -1.683 -13.288 -1.683 C -11.89 -1.683 -10.961 -0.78 -10.961 0.391 M -15.333 4.646 C -15.455 4.631 -15.588 4.618 -15.723 4.618 C -15.857 4.618 -15.978 4.631 -16.126 4.646 C -16.946 2.235 -17.578 0.634 -17.955 -0.147 C -18.374 0.702 -18.963 2.303 -19.596 4.646 C -19.73 4.618 -19.865 4.605 -19.987 4.605 C -20.107 4.605 -20.243 4.618 -20.376 4.646 C -20.874 2.895 -21.439 1.294 -22.097 -0.161 C -22.972 2.086 -23.51 3.691 -23.738 4.646 C -23.94 4.605 -24.142 4.59 -24.331 4.59 C -24.532 4.59 -24.721 4.605 -24.909 4.646 C -23.645 1.576 -22.877 -0.498 -22.624 -1.562 C -22.488 -1.533 -22.38 -1.533 -22.246 -1.533 C -22.125 -1.533 -21.99 -1.533 -21.869 -1.562 C -21.6 -0.43 -21.062 1.159 -20.215 3.193 C -19.207 0.5 -18.682 -1.075 -18.601 -1.562 C -18.467 -1.533 -18.346 -1.519 -18.224 -1.519 C -18.089 -1.519 -17.955 -1.533 -17.821 -1.562 C -17.498 -0.335 -16.623 1.71 -15.333 4.646 M -27.087 0 C -27.087 -0.188 -27.101 -0.349 -27.316 -0.563 C -27.666 -0.915 -28.205 -1.144 -28.634 -1.144 C -29.36 -1.144 -29.805 -0.687 -29.805 0.109 C -29.805 1.143 -28.984 1.386 -27.087 1.695 Z M -25.299 -1.344 L -25.352 -1.089 C -25.434 -1.103 -25.515 -1.103 -25.581 -1.103 C -26.079 -1.103 -26.159 -0.861 -26.159 -0.229 L -26.159 0.134 L -26.106 2.38 L -26.106 2.543 C -26.106 4.036 -26.684 4.748 -28.176 4.748 C -28.997 4.748 -29.737 4.493 -30.303 4.008 L -30.328 3.322 L -30.221 3.322 C -29.818 3.942 -29.253 4.25 -28.527 4.25 C -27.465 4.25 -27.062 3.686 -27.062 2.529 L -27.062 2.246 C -27.396 1.951 -28.19 1.897 -29.348 1.654 C -30.383 1.426 -30.879 0.874 -30.879 -0.066 C -30.879 -1.089 -30.235 -1.683 -29.065 -1.683 C -28.311 -1.683 -27.653 -1.372 -27.101 -0.792 C -27.021 -1.318 -26.832 -1.56 -26.375 -1.56 C -25.999 -1.56 -25.662 -1.453 -25.299 -1.344 M -31.499 4.929 L -31.499 5.626 C -31.687 5.466 -31.997 5.198 -32.454 4.875 L -32.454 5.023 C -32.454 6.272 -32.427 7.454 -32.386 8.287 C -32.562 8.275 -32.764 8.261 -32.953 8.261 C -33.112 8.261 -33.301 8.275 -33.476 8.287 C -33.422 7.201 -33.409 5.963 -33.409 4.565 L -33.409 4.218 C -33.799 3.949 -33.919 3.868 -34.324 3.626 L -34.324 2.941 C -33.759 3.398 -33.476 3.639 -33.422 3.666 L -33.422 1.758 C -33.422 0.308 -33.45 -0.792 -33.476 -1.562 C -33.301 -1.533 -33.126 -1.519 -32.953 -1.519 C -32.764 -1.519 -32.576 -1.533 -32.386 -1.562 C -32.427 -0.727 -32.454 1.167 -32.454 4.325 C -32.05 4.581 -31.943 4.66 -31.499 4.929 M -34.74 4.237 C -35.426 4.587 -36.139 4.762 -36.88 4.762 C -38.843 4.762 -40.147 3.484 -40.147 1.534 C -40.147 -0.43 -38.896 -1.696 -37.067 -1.696 C -36.139 -1.696 -35.413 -1.492 -34.821 -1.035 C -34.834 -0.955 -34.834 -0.861 -34.834 -0.767 C -34.834 -0.632 -34.821 -0.47 -34.809 -0.283 C -35.439 -0.927 -36.059 -1.238 -36.797 -1.238 C -38.157 -1.238 -39.085 -0.188 -39.085 1.546 C -39.085 3.336 -38.264 4.344 -36.88 4.344 C -36.059 4.344 -35.467 3.942 -35.091 3.106 C -35.01 3.523 -34.888 3.915 -34.74 4.237 M -42.191 1.466 C -42.191 -0.335 -42.892 -1.278 -44.183 -1.278 C -45.486 -1.278 -46.186 -0.31 -46.186 1.56 C -46.186 3.416 -45.486 4.372 -44.195 4.372 C -42.892 4.372 -42.191 3.376 -42.191 1.466 M -41.061 1.546 C -41.061 3.458 -42.354 4.762 -44.183 4.762 C -45.958 4.762 -47.302 3.458 -47.302 1.546 C -47.302 -0.376 -45.999 -1.683 -44.183 -1.683 C -42.394 -1.683 -41.061 -0.417 -41.061 1.546 M -47.922 4.641 C -48.135 4.682 -48.297 4.707 -48.419 4.707 C -49.065 4.707 -49.589 4.196 -50.06 3.201 C -50.06 3.739 -50.032 4.224 -49.992 4.641 C -50.167 4.6 -50.355 4.587 -50.543 4.587 C -50.718 4.587 -50.907 4.6 -51.109 4.641 C -51.054 4.076 -51.041 3.444 -51.041 2.744 C -51.041 0.82 -51.068 -0.618 -51.109 -1.547 C -50.935 -1.519 -50.771 -1.506 -50.611 -1.506 C -50.424 -1.506 -50.22 -1.519 -50.032 -1.562 C -50.073 -0.968 -50.1 -0.081 -50.1 1.089 C -50.1 2.877 -49.722 3.752 -48.728 3.752 C -48.513 3.752 -48.311 3.698 -48.096 3.579 L -47.988 3.645 C -47.988 4.021 -47.975 4.372 -47.922 4.641 M -51.592 7.425 C -51.74 7.384 -51.889 7.371 -52.037 7.371 C -52.184 7.371 -52.319 7.384 -52.453 7.425 C -53.113 4.856 -53.879 2.314 -54.74 -0.175 C -55.667 2.38 -56.502 4.922 -57.268 7.425 C -57.418 7.384 -57.564 7.371 -57.699 7.371 C -57.847 7.371 -57.98 7.384 -58.129 7.425 C -58.869 4.707 -59.703 2.139 -60.591 -0.31 C -61.451 2.355 -62.205 4.936 -62.876 7.425 C -63.08 7.384 -63.294 7.371 -63.496 7.371 C -63.711 7.371 -63.925 7.384 -64.128 7.425 C -63.104 4.224 -62.165 1.237 -61.315 -1.562 C -61.156 -1.519 -61.007 -1.492 -60.859 -1.492 C -60.698 -1.492 -60.55 -1.519 -60.401 -1.562 C -60.013 -0.483 -59.206 1.963 -57.941 5.784 C -57.04 3.282 -56.219 0.834 -55.519 -1.576 C -55.359 -1.519 -55.21 -1.506 -55.049 -1.506 C -54.887 -1.506 -54.74 -1.519 -54.593 -1.562 C -53.61 1.372 -52.629 4.359 -51.592 7.425 M -0.012 13.106 C -0.012 12.917 -0.025 12.754 -0.243 12.538 C -0.596 12.185 -1.137 11.957 -1.57 11.957 C -2.301 11.957 -2.749 12.416 -2.749 13.215 C -2.749 14.258 -1.922 14.5 -0.012 14.813 Z M 1.788 11.751 L 1.734 12.009 C 1.653 11.997 1.572 11.997 1.504 11.997 C 1.002 11.997 0.921 12.239 0.921 12.876 L 0.921 13.241 L 0.976 15.502 L 0.976 15.667 C 0.976 17.168 0.393 17.887 -1.109 17.887 C -1.935 17.887 -2.679 17.629 -3.249 17.142 L -3.276 16.452 L -3.167 16.452 C -2.761 17.073 -2.192 17.384 -1.461 17.384 C -0.392 17.384 0.014 16.815 0.014 15.653 L 0.014 15.368 C -0.324 15.069 -1.124 15.016 -2.288 14.771 C -3.33 14.541 -3.832 13.986 -3.832 13.039 C -3.832 12.009 -3.182 11.411 -2.003 11.411 C -1.245 11.411 -0.581 11.726 -0.025 12.308 C 0.055 11.78 0.245 11.535 0.704 11.535 C 1.084 11.535 1.424 11.645 1.788 11.751 M -4.318 11.534 C -5.509 12.944 -6.553 14.151 -7.432 15.18 L -6.241 16.306 C -5.523 16.984 -4.968 17.484 -4.521 17.782 C -4.712 17.755 -4.914 17.741 -5.104 17.741 C -5.293 17.741 -5.483 17.755 -5.686 17.782 C -7.135 15.938 -8.205 15.086 -8.448 15.086 C -8.598 15.086 -8.665 15.167 -8.665 15.315 L -8.665 15.762 C -8.665 17.417 -8.651 19.306 -8.598 21.45 C -8.774 21.422 -8.962 21.395 -9.153 21.395 C -9.328 21.395 -9.519 21.422 -9.707 21.45 C -9.654 19.777 -9.641 18.132 -9.641 16.51 C -9.641 15.234 -9.654 13.582 -9.707 11.534 C -9.519 11.575 -9.328 11.604 -9.153 11.604 C -8.962 11.604 -8.774 11.575 -8.598 11.534 C -8.665 12.565 -8.665 13.363 -8.665 13.895 L -8.665 14.64 C -8.665 14.76 -8.665 14.815 -8.543 14.815 C -8.34 14.815 -7.379 13.745 -5.74 11.534 C -5.523 11.575 -5.293 11.589 -5.064 11.589 C -4.818 11.589 -4.562 11.575 -4.318 11.534 M -11.821 11.534 C -11.862 12.619 -11.888 13.719 -11.888 14.815 C -11.888 15.831 -11.862 16.809 -11.821 17.782 C -11.982 17.741 -12.172 17.729 -12.362 17.729 C -12.538 17.729 -12.713 17.741 -12.902 17.782 C -12.862 16.821 -12.835 15.831 -12.835 14.815 C -12.835 13.719 -12.862 12.619 -12.902 11.534 C -12.713 11.575 -12.538 11.604 -12.362 11.604 C -12.172 11.604 -11.982 11.575 -11.821 11.534 M -11.684 20.08 C -11.684 20.459 -11.982 20.743 -12.362 20.743 C -12.727 20.743 -13.039 20.459 -13.039 20.08 C -13.039 19.715 -12.727 19.417 -12.362 19.417 C -11.982 19.417 -11.684 19.715 -11.684 20.08 M -14.988 11.534 C -15.016 12.28 -15.029 12.97 -15.029 13.621 C -15.029 14.243 -15.002 14.893 -15.002 15.543 C -15.002 17.127 -15.706 17.913 -17.115 17.913 C -18.008 17.913 -18.685 17.494 -19.186 16.628 C -19.186 16.791 -19.2 16.952 -19.2 17.114 C -19.2 17.331 -19.186 17.548 -19.172 17.777 C -19.335 17.737 -19.512 17.724 -19.7 17.724 C -19.864 17.724 -20.052 17.737 -20.243 17.777 C -20.187 16.844 -20.187 15.854 -20.187 14.771 L -20.187 13.838 C -20.187 13.039 -20.187 12.28 -20.243 11.534 C -20.052 11.575 -19.876 11.604 -19.7 11.604 C -19.512 11.604 -19.321 11.575 -19.145 11.534 C -19.172 12.214 -19.172 13.024 -19.172 14.014 L -19.172 14.61 C -19.172 15.491 -19.145 16.153 -18.726 16.668 C -18.428 17.061 -18.008 17.237 -17.494 17.237 C -16.492 17.237 -15.99 16.587 -15.99 15.286 C -15.99 13.715 -16.018 12.456 -16.072 11.534 C -15.883 11.575 -15.706 11.604 -15.531 11.604 C -15.355 11.604 -15.164 11.575 -14.988 11.534 M -22.206 11.534 C -22.233 12.416 -22.261 13.093 -22.261 13.568 C -22.261 14.353 -22.22 15.028 -22.22 15.597 C -22.22 17.127 -22.924 17.899 -24.332 17.899 C -25.211 17.899 -25.821 17.535 -26.389 16.694 C -26.389 17.331 -26.404 17.94 -26.404 18.507 C -26.404 19.359 -26.389 20.344 -26.363 21.45 C -26.524 21.422 -26.715 21.395 -26.904 21.395 C -27.068 21.395 -27.256 21.422 -27.46 21.45 C -27.419 19.898 -27.391 18.251 -27.391 16.504 C -27.391 15.584 -27.406 13.932 -27.46 11.534 C -27.284 11.575 -27.108 11.604 -26.932 11.604 C -26.742 11.604 -26.552 11.575 -26.376 11.534 C -26.389 12.253 -26.404 12.767 -26.404 13.08 L -26.404 14.026 C -26.404 15.138 -26.376 15.909 -26.146 16.37 C -25.849 16.938 -25.348 17.237 -24.724 17.237 C -23.601 17.237 -23.221 16.546 -23.221 15.057 C -23.221 14.176 -23.248 12.999 -23.289 11.534 C -23.1 11.575 -22.924 11.604 -22.748 11.604 C -22.559 11.604 -22.368 11.575 -22.206 11.534 M -28.664 17.372 C -29.355 17.724 -30.073 17.899 -30.819 17.899 C -32.794 17.899 -34.107 16.614 -34.107 14.651 C -34.107 12.673 -32.849 11.399 -31.007 11.399 C -30.073 11.399 -29.342 11.604 -28.746 12.063 C -28.76 12.145 -28.76 12.239 -28.76 12.335 C -28.76 12.47 -28.746 12.632 -28.732 12.822 C -29.37 12.173 -29.992 11.861 -30.737 11.861 C -32.104 11.861 -33.039 12.917 -33.039 14.664 C -33.039 16.464 -32.212 17.479 -30.819 17.479 C -29.992 17.479 -29.396 17.073 -29.018 16.235 C -28.936 16.654 -28.814 17.046 -28.664 17.372 M -36.139 15.204 L -39.619 15.204 C -39.564 16.628 -38.779 17.507 -37.791 17.507 C -36.775 17.507 -36.139 16.749 -36.139 15.421 Z M -35.068 15.028 C -35.068 16.885 -36.058 17.913 -37.736 17.913 C -39.577 17.913 -40.783 16.614 -40.783 14.651 C -40.783 12.742 -39.523 11.411 -37.655 11.411 C -36.843 11.411 -36.099 11.67 -35.408 12.173 L -35.408 12.335 C -35.408 12.483 -35.394 12.66 -35.38 12.835 C -36.004 12.226 -36.654 11.943 -37.425 11.943 C -38.861 11.943 -39.646 12.904 -39.646 14.705 L -39.646 14.746 L -35.082 14.746 C -35.082 14.84 -35.068 14.934 -35.068 15.028 M -41.027 11.847 L -41.123 12.145 C -41.501 11.957 -41.813 11.861 -42.043 11.861 C -42.882 11.861 -43.153 12.374 -43.153 13.542 C -43.153 14.746 -43.099 15.766 -43.099 16.604 C -43.099 16.673 -43.085 16.903 -43.071 17.267 C -42.936 17.282 -42.774 17.282 -42.598 17.282 C -42.26 17.282 -41.853 17.267 -41.38 17.242 L -41.38 17.349 C -41.38 17.513 -41.365 17.66 -41.338 17.782 C -42.002 17.729 -42.571 17.714 -43.058 17.714 L -43.058 18.58 C -43.058 18.714 -43.045 19.054 -43.017 19.619 C -43.329 19.471 -43.682 19.363 -44.088 19.295 C -44.073 18.944 -44.06 18.58 -44.06 18.188 L -44.06 17.741 C -44.332 17.741 -44.629 17.755 -44.899 17.782 C -44.899 17.729 -44.886 17.66 -44.886 17.579 C -44.886 17.472 -44.899 17.349 -44.914 17.227 C -44.683 17.255 -44.452 17.267 -44.224 17.267 L -44.088 17.267 L -44.088 16.821 C -44.088 15.086 -44.154 13.88 -44.154 13.216 C -44.154 11.969 -43.695 11.399 -42.463 11.399 C -41.961 11.399 -41.461 11.563 -41.027 11.847 M -46.172 11.534 C -46.212 12.619 -46.24 13.719 -46.24 14.815 C -46.24 15.831 -46.212 16.809 -46.172 17.782 C -46.334 17.741 -46.525 17.729 -46.715 17.729 C -46.891 17.729 -47.066 17.741 -47.255 17.782 C -47.214 16.821 -47.188 15.831 -47.188 14.815 C -47.188 13.719 -47.214 12.619 -47.255 11.534 C -47.066 11.575 -46.891 11.604 -46.715 11.604 C -46.525 11.604 -46.334 11.575 -46.172 11.534 M -46.037 20.08 C -46.037 20.459 -46.334 20.743 -46.715 20.743 C -47.079 20.743 -47.392 20.459 -47.392 20.08 C -47.392 19.715 -47.079 19.417 -46.715 19.417 C -46.334 19.417 -46.037 19.715 -46.037 20.08 M -49.341 11.534 C -49.382 12.684 -49.395 14.635 -49.395 17.378 C -49.395 18.879 -49.395 20.233 -49.341 21.45 C -49.517 21.436 -49.722 21.422 -49.91 21.422 C -50.073 21.422 -50.262 21.436 -50.438 21.45 C -50.384 20.719 -50.384 19.869 -50.384 18.867 L -50.384 15.391 C -50.384 13.699 -50.384 12.416 -50.438 11.534 C -50.262 11.563 -50.085 11.575 -49.91 11.575 C -49.722 11.575 -49.53 11.563 -49.341 11.534 M -53.024 14.582 C -53.024 12.767 -53.729 11.821 -55.028 11.821 C -56.341 11.821 -57.046 12.794 -57.046 14.676 C -57.046 16.546 -56.341 17.507 -55.042 17.507 C -53.729 17.507 -53.024 16.504 -53.024 14.582 M -51.887 14.664 C -51.887 16.587 -53.187 17.899 -55.028 17.899 C -56.816 17.899 -58.169 16.587 -58.169 14.664 C -58.169 12.728 -56.857 11.411 -55.028 11.411 C -53.227 11.411 -51.887 12.688 -51.887 14.664 M -59.551 18.198 C -59.551 16.815 -60.5 16.125 -62.394 16.125 C -62.598 16.125 -62.787 16.14 -62.99 16.153 L -62.99 17.344 C -62.99 18.306 -62.963 19.212 -62.922 20.067 C -62.639 20.093 -62.367 20.107 -62.095 20.107 C -60.351 20.107 -59.551 19.619 -59.551 18.198 M -58.305 18.306 C -58.305 19.769 -59.347 20.635 -61.271 20.635 C -62.083 20.635 -62.814 20.541 -63.478 20.541 C -63.667 20.541 -63.871 20.554 -64.128 20.58 C -64.074 19.171 -64.047 17.67 -64.047 16.045 C -64.047 14.5 -64.074 12.999 -64.128 11.534 C -63.896 11.575 -63.682 11.604 -63.464 11.604 C -63.274 11.604 -63.099 11.575 -62.909 11.55 C -62.963 12.497 -62.976 13.241 -62.976 13.784 L -62.976 15.679 C -62.557 15.653 -62.206 15.653 -61.974 15.653 C -59.579 15.653 -58.305 16.628 -58.305 18.306" style="fill-rule: evenodd; fill-opacity: 1; fill: rgb(255, 255, 255);" transform="matrix(1, 0, 0, -1, 190.205093, 370.969421)"/>
  <path d="M 0 0 L -40.551 4.282 L -40.551 4.205 C -38.718 3.433 -38.188 1.224 -39.584 -0.181 L 0 -0.181 Z M -39.584 -48.138 L -39.584 -0.181 C -41.121 -1.276 -42.965 -0.794 -43.651 1.126 L -43.746 1.126 L -39.765 -48.138 Z M -17.491 -7.66 C -17.523 -7.119 -18.723 -7.382 -19.118 -7.759 C -19.301 -7.933 -19.377 -8.156 -19.485 -8.377 C -19.471 -8.418 -19.369 -8.327 -19.15 -8.262 C -18.792 -8.153 -18.164 -8.271 -17.968 -8.035 C -17.835 -7.887 -17.666 -7.744 -17.491 -7.66 M 0 -4.684 L -20.244 -4.684 L -20.243 -7.48 C -19.765 -7.226 -19.376 -7.001 -18.862 -6.854 C -18.521 -6.758 -18.15 -6.653 -17.788 -6.689 C -17.259 -6.744 -17.063 -7.099 -17.122 -7.469 C -16.654 -7.218 -15.774 -7.079 -15.352 -7.465 C -14.946 -7.836 -14.863 -8.442 -14.998 -8.948 C -15.47 -8.442 -16.076 -8.314 -16.719 -8.628 C -17.199 -8.863 -17.6 -9.277 -17.818 -9.763 C -17.61 -10 -16.943 -9.81 -16.714 -9.69 C -16.462 -9.561 -16.239 -9.35 -15.958 -9.042 C -15.994 -9.5 -16.048 -9.923 -16.213 -10.148 C -16.528 -10.578 -16.842 -10.665 -17.378 -10.851 C -17.796 -10.997 -18.219 -11.198 -18.632 -11.62 C -18.99 -12.095 -19.082 -12.919 -18.971 -13.62 C -18.852 -14.39 -18.567 -15.201 -18.329 -15.998 C -18.09 -16.795 -17.895 -17.58 -17.953 -18.299 C -16.724 -18.497 -14.751 -17.129 -14.058 -16.57 C -13.292 -15.95 -12.503 -15.229 -12.123 -14.528 C -11.812 -13.958 -11.721 -12.795 -12.304 -11.888 C -13.407 -10.172 -12.805 -7.401 -10.468 -6.695 C -9.036 -6.277 -7.064 -6.679 -6.179 -8.276 C -5.317 -9.833 -5.119 -11.587 -5.146 -13.424 C -5.186 -16.24 -5.297 -17.991 -4.774 -20.091 C -4.518 -21.12 -4.037 -22.07 -3.275 -22.941 C -3.874 -23.651 -4.874 -23.165 -5.642 -22.508 C -6.781 -21.536 -7.753 -19.34 -8.379 -15.813 L -8.499 -16.249 C -8.527 -18.374 -8.251 -19.998 -7.792 -21.896 C -7.326 -23.817 -6.65 -24.933 -5.004 -26.19 C -5.908 -27.006 -6.821 -26.655 -7.618 -26.048 C -9.201 -24.843 -9.883 -23.473 -10.53 -20.704 L -10.649 -20.859 C -10.788 -22.483 -10.617 -24.093 -10.096 -25.552 C -9.599 -26.949 -8.634 -28.286 -7.392 -29.301 C -8.235 -30.062 -9.155 -29.56 -9.921 -29.004 C -11.002 -28.221 -12.615 -26.706 -13.132 -23.736 L -13.269 -23.853 C -13.323 -25.552 -13.164 -27.08 -12.797 -28.395 C -12.423 -29.734 -11.287 -31.331 -10.142 -32.098 C -11.095 -32.904 -11.954 -32.409 -12.65 -31.874 C -14.5 -30.45 -15.664 -28.439 -16.09 -25.768 L -16.256 -25.852 C -16.454 -28.753 -16.442 -31.937 -13.842 -33.794 L -14.874 -34.445 L -14.271 -35.469 C -14.005 -35.922 -11.6 -34.689 -10.621 -35.469 C -10.227 -35.784 -9.972 -36.29 -10.257 -36.929 L -10.316 -36.904 C -10.343 -36.452 -10.571 -36.214 -10.871 -36.089 C -11.306 -35.91 -11.971 -35.958 -12.47 -36.528 C -13.435 -37.181 -14.116 -36.717 -14.614 -37.37 C -14.911 -37.757 -14.904 -38.098 -14.778 -38.479 L -14.829 -38.51 C -16.159 -37.813 -14.916 -36.524 -15.161 -36.094 L -15.81 -34.959 L -16.851 -35.589 C -16.945 -34.828 -18.132 -30.781 -18.848 -30.508 C -19.035 -30.775 -19.025 -31.483 -19.052 -31.97 C -19.09 -32.652 -18.777 -33.151 -18.846 -34.103 C -18.875 -34.519 -19.083 -35.089 -19.415 -35.66 C -19.087 -35.873 -18.939 -36.207 -18.948 -36.598 C -18.958 -37.035 -19.153 -37.542 -19.288 -37.955 C -19.462 -38.487 -19.614 -38.891 -19.415 -38.891 C -18.843 -38.593 -18.309 -38.541 -17.848 -38.674 C -17.182 -38.865 -16.759 -39.501 -16.156 -39.812 C -15.462 -40.17 -14.869 -40.106 -14.073 -40.41 C -15.159 -40.826 -15.315 -41.935 -16.789 -41.707 C -17.677 -41.568 -19.007 -39.891 -19.25 -40.03 C -19.418 -40.528 -19.309 -41.106 -19.214 -41.89 C -19.168 -42.279 -19.122 -42.721 -19.118 -43.227 C -19.113 -43.735 -19.15 -44.308 -19.26 -44.959 C -19.41 -45.831 -19.724 -46.946 -20.233 -48.138 L -20.219 -48.138 C -0.312 -41.483 -0.167 -13.614 0 -4.684 M -9.061 -9.661 C -8.65 -9.661 -8.316 -9.307 -8.316 -8.874 C -8.316 -8.441 -8.65 -8.088 -9.061 -8.088 C -9.47 -8.088 -9.805 -8.441 -9.805 -8.874 C -9.805 -9.307 -9.47 -9.661 -9.061 -9.661 M -10.426 -11.043 C -10.018 -11.043 -9.683 -10.69 -9.683 -10.257 C -9.683 -9.823 -10.018 -9.47 -10.426 -9.47 C -10.837 -9.47 -11.171 -9.823 -11.171 -10.257 C -11.171 -10.69 -10.837 -11.043 -10.426 -11.043 M -7.903 -11.269 C -7.494 -11.269 -7.16 -10.917 -7.16 -10.483 C -7.16 -10.05 -7.494 -9.697 -7.903 -9.697 C -8.314 -9.697 -8.647 -10.05 -8.647 -10.483 C -8.647 -10.917 -8.314 -11.269 -7.903 -11.269 M -9.095 -10.079 L -9.219 -10.079 C -9.766 -15.607 -14.247 -21.521 -20.239 -21.712 L -20.239 -23.802 C -12.836 -23.334 -9.244 -17.537 -9.095 -10.079 M -22.995 -7.66 C -22.82 -7.744 -22.651 -7.887 -22.518 -8.035 C -22.324 -8.271 -21.696 -8.153 -21.337 -8.262 C -21.118 -8.327 -21.016 -8.418 -21.001 -8.377 C -21.109 -8.156 -21.186 -7.933 -21.369 -7.759 C -21.765 -7.382 -22.963 -7.118 -22.995 -7.66 M -20.255 -48.138 L -20.243 -7.48 C -20.722 -7.226 -21.11 -7.001 -21.624 -6.854 C -21.967 -6.758 -22.337 -6.653 -22.699 -6.689 C -23.228 -6.744 -23.424 -7.098 -23.366 -7.469 C -23.833 -7.218 -24.712 -7.079 -25.136 -7.465 C -25.541 -7.836 -25.624 -8.442 -25.489 -8.948 C -25.017 -8.442 -24.411 -8.313 -23.769 -8.628 C -23.288 -8.863 -22.889 -9.277 -22.668 -9.762 C -22.875 -10 -23.545 -9.809 -23.773 -9.69 C -24.026 -9.561 -24.246 -9.35 -24.53 -9.042 C -24.494 -9.5 -24.438 -9.923 -24.274 -10.148 C -23.958 -10.578 -23.646 -10.665 -23.109 -10.851 C -22.691 -10.997 -22.269 -11.198 -21.854 -11.619 C -21.496 -12.094 -21.406 -12.919 -21.516 -13.62 C -21.636 -14.389 -21.92 -15.201 -22.159 -15.997 C -22.398 -16.795 -22.592 -17.58 -22.535 -18.299 C -23.762 -18.497 -25.736 -17.129 -26.429 -16.57 C -27.196 -15.95 -27.984 -15.229 -28.364 -14.528 C -28.674 -13.958 -28.765 -12.795 -28.182 -11.888 C -27.08 -10.171 -27.682 -7.401 -30.018 -6.695 C -31.452 -6.277 -33.421 -6.679 -34.307 -8.276 C -35.168 -9.833 -35.369 -11.586 -35.342 -13.424 C -35.302 -16.24 -35.189 -17.991 -35.713 -20.091 C -35.968 -21.12 -36.449 -22.069 -37.211 -22.941 C -36.614 -23.651 -35.613 -23.164 -34.844 -22.507 C -33.705 -21.536 -32.733 -19.34 -32.108 -15.813 L -31.987 -16.249 C -31.959 -18.374 -32.237 -19.998 -32.696 -21.896 C -33.16 -23.817 -33.837 -24.933 -35.481 -26.19 C -34.578 -27.006 -33.665 -26.654 -32.869 -26.047 C -31.285 -24.842 -30.604 -23.473 -29.957 -20.704 L -29.838 -20.859 C -29.7 -22.483 -29.87 -24.093 -30.39 -25.552 C -30.889 -26.949 -31.853 -28.286 -33.095 -29.301 C -32.251 -30.062 -31.332 -29.56 -30.566 -29.004 C -29.484 -28.221 -27.871 -26.706 -27.354 -23.735 L -27.219 -23.853 C -27.164 -25.551 -27.322 -27.08 -27.689 -28.394 C -28.063 -29.734 -29.201 -31.331 -30.344 -32.098 C -29.393 -32.904 -28.532 -32.409 -27.836 -31.874 C -25.986 -30.45 -24.822 -28.439 -24.397 -25.767 L -24.231 -25.852 C -24.032 -28.753 -24.045 -31.937 -26.646 -33.794 L -25.613 -34.444 L -26.215 -35.469 C -26.481 -35.921 -28.888 -34.689 -29.866 -35.469 C -30.26 -35.784 -30.514 -36.289 -30.229 -36.929 L -30.17 -36.904 C -30.146 -36.452 -29.916 -36.214 -29.617 -36.089 C -29.181 -35.91 -28.515 -35.958 -28.017 -36.528 C -27.051 -37.18 -26.371 -36.716 -25.871 -37.37 C -25.576 -37.757 -25.582 -38.098 -25.707 -38.479 L -25.659 -38.51 C -24.328 -37.813 -25.571 -36.524 -25.325 -36.094 L -24.677 -34.959 L -23.636 -35.589 C -23.541 -34.828 -22.355 -30.781 -21.639 -30.507 C -21.453 -30.775 -21.462 -31.483 -21.435 -31.97 C -21.397 -32.652 -21.709 -33.151 -21.641 -34.103 C -21.612 -34.518 -21.403 -35.089 -21.073 -35.659 C -21.398 -35.873 -21.548 -36.207 -21.54 -36.598 C -21.531 -37.034 -21.333 -37.542 -21.199 -37.955 C -21.023 -38.487 -20.871 -38.891 -21.073 -38.891 C -21.643 -38.593 -22.177 -38.541 -22.639 -38.673 C -23.305 -38.865 -23.728 -39.5 -24.329 -39.812 C -25.025 -40.17 -25.618 -40.106 -26.413 -40.41 C -25.329 -40.826 -25.172 -41.935 -23.697 -41.707 C -22.811 -41.568 -21.48 -39.891 -21.238 -40.03 C -21.068 -40.528 -21.178 -41.106 -21.272 -41.89 C -21.32 -42.278 -21.366 -42.721 -21.369 -43.227 C -21.374 -43.735 -21.337 -44.308 -21.226 -44.959 C -21.078 -45.828 -20.772 -46.949 -20.266 -48.138 Z M -31.426 -9.661 C -31.017 -9.661 -30.682 -9.307 -30.682 -8.874 C -30.682 -8.441 -31.017 -8.087 -31.426 -8.087 C -31.836 -8.087 -32.169 -8.441 -32.169 -8.874 C -32.169 -9.307 -31.836 -9.661 -31.426 -9.661 M -30.06 -11.042 C -29.65 -11.042 -29.315 -10.69 -29.315 -10.257 C -29.315 -9.823 -29.65 -9.47 -30.06 -9.47 C -30.469 -9.47 -30.803 -9.823 -30.803 -10.257 C -30.803 -10.69 -30.469 -11.042 -30.06 -11.042 M -32.583 -11.268 C -32.173 -11.268 -31.839 -10.917 -31.839 -10.483 C -31.839 -10.05 -32.173 -9.697 -32.583 -9.697 C -32.993 -9.697 -33.327 -10.05 -33.327 -10.483 C -33.327 -10.917 -32.993 -11.268 -32.583 -11.268 M -31.391 -10.079 C -31.243 -17.536 -27.65 -23.334 -20.247 -23.801 L -20.247 -21.712 C -26.24 -21.52 -30.72 -15.607 -31.269 -10.079 Z M 9.576 10.833 L 10.886 9.524 L 10.886 -54.69 L -53.319 -54.69 L -54.63 -53.38 L 9.576 -53.38 Z" style="fill-rule: evenodd; fill-opacity: 1; fill: rgb(255, 255, 255);" transform="matrix(1, 0, 0, -1, 180.309097, 287.418762)"/>
</svg>