<?xml version="1.0" encoding="utf-8"?>
<svg viewBox="126.445 395.099 64.782 111.857" xmlns="http://www.w3.org/2000/svg">
  <path d="M 0 0 C 0.507 -0.146 0.892 -0.366 1.364 -0.618 L 1.36 -14.693 L 1.361 -14.693 L 1.361 -16.758 C 1.361 -16.758 1.36 -16.757 1.36 -16.757 L 1.36 -14.693 C -4.566 -14.5 -8.995 -8.653 -9.537 -3.188 L -9.658 -3.188 C -9.512 -10.56 -5.961 -16.293 1.36 -16.758 L 1.353 -40.822 L 1.343 -40.822 C 0.841 -39.645 0.538 -38.536 0.394 -37.678 C 0.284 -37.033 0.247 -36.467 0.251 -35.964 C 0.256 -35.464 0.301 -35.026 0.347 -34.641 C 0.44 -33.867 0.548 -33.295 0.381 -32.804 C 0.143 -32.666 -1.173 -34.325 -2.052 -34.46 C -3.509 -34.688 -3.663 -33.589 -4.736 -33.179 C -3.949 -32.882 -3.364 -32.94 -2.676 -32.588 C -2.081 -32.281 -1.664 -31.651 -1.004 -31.462 C -0.55 -31.33 -0.019 -31.382 0.545 -31.674 C 0.745 -31.674 0.594 -31.276 0.418 -30.753 C 0.288 -30.343 0.091 -29.842 0.082 -29.411 C 0.074 -29.026 0.222 -28.693 0.545 -28.482 C 0.218 -27.918 0.01 -27.352 -0.018 -26.943 C -0.086 -26.001 0.224 -25.509 0.187 -24.833 C 0.159 -24.352 0.167 -23.651 -0.016 -23.387 C -0.725 -23.658 -1.896 -27.662 -1.989 -28.414 L -3.021 -27.789 L -3.661 -28.912 C -3.904 -29.338 -2.674 -30.612 -3.99 -31.3 L -4.038 -31.27 C -3.914 -30.893 -3.909 -30.554 -4.2 -30.174 C -4.694 -29.527 -5.366 -29.987 -6.322 -29.341 C -6.814 -28.774 -7.473 -28.729 -7.903 -28.909 C -8.2 -29.032 -8.427 -29.266 -8.45 -29.714 L -8.509 -29.738 C -8.79 -29.104 -8.541 -28.605 -8.148 -28.292 C -7.184 -27.521 -4.805 -28.741 -4.542 -28.292 L -3.945 -27.28 L -4.964 -26.637 C -2.394 -24.799 -2.382 -21.654 -2.579 -18.786 L -2.742 -18.702 C -3.162 -21.341 -4.314 -23.331 -6.144 -24.74 C -6.831 -25.269 -7.683 -25.756 -8.622 -24.961 C -7.494 -24.202 -6.367 -22.623 -5.997 -21.296 C -5.635 -20 -5.478 -18.487 -5.533 -16.807 L -5.668 -16.692 C -6.177 -19.627 -7.774 -21.126 -8.842 -21.9 C -9.599 -22.45 -10.508 -22.949 -11.342 -22.196 C -10.114 -21.19 -9.162 -19.867 -8.668 -18.489 C -8.154 -17.046 -7.986 -15.453 -8.123 -13.848 L -8.24 -13.696 C -8.881 -16.431 -9.553 -17.788 -11.12 -18.979 C -11.907 -19.58 -12.809 -19.926 -13.703 -19.119 C -12.077 -17.877 -11.407 -16.771 -10.948 -14.874 C -10.494 -12.997 -10.219 -11.391 -10.247 -9.289 L -10.368 -8.857 C -10.985 -12.347 -11.947 -14.518 -13.073 -15.478 C -13.833 -16.127 -14.823 -16.608 -15.413 -15.906 C -14.66 -15.045 -14.184 -14.104 -13.932 -13.089 C -13.413 -11.012 -13.524 -9.28 -13.564 -6.496 C -13.592 -4.68 -13.395 -2.945 -12.541 -1.406 C -11.666 0.174 -9.718 0.57 -8.301 0.158 C -5.99 -0.541 -5.396 -3.281 -6.486 -4.979 C -7.063 -5.875 -6.971 -7.024 -6.666 -7.587 C -6.289 -8.281 -5.51 -8.995 -4.751 -9.607 C -4.066 -10.158 -2.114 -11.512 -0.902 -11.317 C -0.958 -10.606 -0.765 -9.83 -0.53 -9.041 C -0.293 -8.254 -0.013 -7.451 0.106 -6.688 C 0.215 -5.999 0.126 -5.182 -0.229 -4.71 C -0.639 -4.296 -1.057 -4.095 -1.469 -3.952 C -2 -3.766 -2.31 -3.68 -2.62 -3.257 C -2.784 -3.035 -2.839 -2.616 -2.875 -2.163 C -2.594 -2.467 -2.375 -2.675 -2.126 -2.804 C -1.899 -2.922 -1.238 -3.11 -1.034 -2.874 C -1.25 -2.396 -1.646 -1.985 -2.122 -1.753 C -2.755 -1.443 -3.354 -1.57 -3.822 -2.069 C -3.956 -1.571 -3.873 -0.973 -3.472 -0.605 C -3.054 -0.222 -2.185 -0.361 -1.722 -0.606 C -1.78 -0.243 -1.587 0.111 -1.063 0.163 C -0.705 0.198 -0.339 0.096 0 0 M -10.836 -4.366 C -10.432 -4.366 -10.1 -4.017 -10.1 -3.587 C -10.1 -3.16 -10.432 -2.81 -10.836 -2.81 C -11.241 -2.81 -11.571 -3.16 -11.571 -3.587 C -11.571 -4.017 -11.241 -4.366 -10.836 -4.366 M -9.693 -2.774 C -9.289 -2.774 -8.958 -2.425 -8.958 -1.997 C -8.958 -1.569 -9.289 -1.218 -9.693 -1.218 C -10.099 -1.218 -10.428 -1.569 -10.428 -1.997 C -10.428 -2.425 -10.099 -2.774 -9.693 -2.774 M -8.341 -4.142 C -7.937 -4.142 -7.605 -3.794 -7.605 -3.364 C -7.605 -2.937 -7.937 -2.588 -8.341 -2.588 C -8.748 -2.588 -9.076 -2.937 -9.076 -3.364 C -9.076 -3.794 -8.748 -4.142 -8.341 -4.142 M 0.282 -1.392 C 0.5 -1.456 0.6 -1.546 0.616 -1.507 C 0.509 -1.287 0.432 -1.067 0.251 -0.896 C -0.141 -0.522 -1.326 -0.262 -1.356 -0.797 C -1.184 -0.879 -1.016 -1.021 -0.885 -1.167 C -0.693 -1.399 -0.071 -1.284 0.282 -1.392 M 3.614 -1.167 C 3.42 -1.399 2.798 -1.284 2.446 -1.392 C 2.229 -1.457 2.128 -1.546 2.114 -1.508 C 2.221 -1.287 2.296 -1.067 2.477 -0.896 C 2.867 -0.522 4.055 -0.261 4.086 -0.797 C 3.913 -0.881 3.747 -1.021 3.614 -1.167 M 12.421 -1.219 C 12.827 -1.219 13.16 -1.568 13.16 -1.999 C 13.16 -2.426 12.827 -2.774 12.421 -2.774 C 12.017 -2.774 11.687 -2.426 11.687 -1.999 C 11.687 -1.568 12.017 -1.219 12.421 -1.219 M 1.37 -16.758 L 1.367 -14.693 C 7.293 -14.501 11.726 -8.654 12.266 -3.188 L 12.386 -3.188 C 12.24 -10.561 8.689 -16.294 1.37 -16.758 M 13.566 -4.366 C 13.158 -4.366 12.831 -4.017 12.831 -3.59 C 12.831 -3.16 13.158 -2.81 13.566 -2.81 C 13.971 -2.81 14.301 -3.16 14.301 -3.59 C 14.301 -4.017 13.971 -4.366 13.566 -4.366 M 11.071 -2.588 C 11.476 -2.588 11.806 -2.938 11.806 -3.364 C 11.806 -3.794 11.476 -4.143 11.071 -4.143 C 10.664 -4.143 10.334 -3.794 10.334 -3.364 C 10.334 -2.938 10.664 -2.588 11.071 -2.588 M -17.759 -40.822 L -17.938 -40.822 L -21.874 7.89 L -21.781 7.89 C -21.102 5.996 -19.279 5.516 -17.759 6.597 L -17.759 6.596 C -16.38 7.987 -16.904 10.171 -18.714 10.934 L -18.714 11.01 L 21.382 6.778 L 21.382 6.596 L -17.759 6.596 Z M 30.85 17.49 L 32.145 16.194 L 32.145 -47.299 L -31.341 -47.299 L -32.637 -46.002 L 30.85 -46.002 Z M 0.027 -70.759 C 0.419 -71.167 0.931 -71.371 1.561 -71.371 C 2.113 -71.371 2.623 -71.2 3.091 -70.858 L 3.091 -70.75 C 3.091 -70.678 3.097 -70.564 3.108 -70.408 C 2.701 -70.811 2.238 -71.01 1.723 -71.01 C 0.715 -71.01 0.211 -70.386 0.211 -69.14 L 0.211 -69.112 L 3.307 -69.112 C 3.307 -69.088 3.31 -69.055 3.316 -69.013 L 3.316 -68.915 C 3.316 -68.284 3.158 -67.799 2.843 -67.46 C 2.528 -67.122 2.083 -66.953 1.506 -66.953 C 0.883 -66.953 0.382 -67.155 0.004 -67.559 C -0.374 -67.964 -0.562 -68.503 -0.562 -69.175 C -0.562 -69.823 -0.366 -70.35 0.027 -70.759 M 0.607 -67.638 C 0.841 -67.36 1.129 -67.223 1.471 -67.223 C 1.819 -67.223 2.093 -67.348 2.294 -67.598 C 2.496 -67.849 2.595 -68.197 2.595 -68.643 L 2.595 -68.797 L 0.229 -68.797 C 0.246 -68.32 0.373 -67.934 0.607 -67.638 M -3.137 -56.66 C -3.749 -56.66 -4.257 -56.865 -4.661 -57.277 C -5.066 -57.687 -5.27 -58.217 -5.27 -58.864 C -5.27 -59.518 -5.07 -60.049 -4.67 -60.457 C -4.272 -60.865 -3.76 -61.069 -3.137 -61.069 C -2.519 -61.069 -2.009 -60.867 -1.607 -60.461 C -1.205 -60.057 -1.003 -59.525 -1.003 -58.864 C -1.003 -58.211 -1.202 -57.68 -1.598 -57.272 C -1.993 -56.864 -2.506 -56.66 -3.137 -56.66 M -3.137 -60.799 C -4.043 -60.799 -4.496 -60.152 -4.496 -58.855 C -4.496 -57.572 -4.045 -56.93 -3.145 -56.93 C -2.233 -56.93 -1.778 -57.592 -1.778 -58.919 C -1.778 -60.172 -2.23 -60.799 -3.137 -60.799 M -7.716 -60.953 C -7.573 -60.953 -7.443 -60.964 -7.329 -60.988 C -7.359 -60.538 -7.375 -59.932 -7.375 -59.17 C -7.375 -58.546 -7.301 -58.088 -7.154 -57.793 C -7.006 -57.5 -6.766 -57.353 -6.43 -57.353 C -6.292 -57.353 -6.148 -57.392 -5.998 -57.47 L -5.926 -57.425 C -5.926 -57.125 -5.912 -56.897 -5.88 -56.742 C -6.042 -56.711 -6.157 -56.695 -6.223 -56.695 C -6.648 -56.695 -7.023 -57.041 -7.348 -57.731 C -7.348 -57.359 -7.329 -57.029 -7.293 -56.742 C -7.408 -56.765 -7.533 -56.776 -7.671 -56.776 C -7.81 -56.776 -7.938 -56.765 -8.059 -56.742 C -8.029 -57.064 -8.013 -57.5 -8.013 -58.046 C -8.013 -59.293 -8.029 -60.271 -8.059 -60.979 C -7.938 -60.96 -7.825 -60.953 -7.716 -60.953 M -9.034 -77.073 C -9.034 -77.745 -8.636 -78.249 -7.838 -78.585 L -7.109 -78.892 C -6.786 -79.029 -6.559 -79.176 -6.425 -79.332 C -6.276 -79.506 -6.201 -79.737 -6.201 -80.025 C -6.201 -80.433 -6.318 -80.756 -6.556 -80.993 C -6.793 -81.229 -7.104 -81.348 -7.487 -81.348 C -8.195 -81.348 -8.689 -80.991 -8.972 -80.277 C -8.996 -80.595 -9.062 -80.914 -9.17 -81.231 C -8.762 -81.549 -8.258 -81.708 -7.658 -81.708 C -7.011 -81.708 -6.491 -81.53 -6.102 -81.174 C -5.711 -80.817 -5.517 -80.348 -5.517 -79.768 C -5.517 -79.383 -5.609 -79.072 -5.796 -78.833 C -5.981 -78.593 -6.284 -78.383 -6.704 -78.203 L -7.433 -77.889 C -8.04 -77.625 -8.342 -77.26 -8.342 -76.792 C -8.342 -76.453 -8.245 -76.18 -8.049 -75.98 C -7.855 -75.779 -7.592 -75.679 -7.262 -75.679 C -6.752 -75.679 -6.339 -75.907 -6.021 -76.363 C -5.943 -76.087 -5.858 -75.856 -5.769 -75.669 C -6.207 -75.448 -6.662 -75.337 -7.137 -75.337 C -7.699 -75.337 -8.157 -75.499 -8.508 -75.823 C -8.86 -76.146 -9.034 -76.564 -9.034 -77.073 M -6.294 -67.079 C -6.426 -67.079 -6.55 -67.065 -6.664 -67.042 C -6.634 -67.774 -6.619 -68.446 -6.619 -69.058 C -6.619 -69.724 -6.634 -70.468 -6.664 -71.29 C -6.525 -71.26 -6.403 -71.245 -6.294 -71.245 C -6.181 -71.245 -6.058 -71.26 -5.926 -71.29 C -5.955 -70.468 -5.971 -69.724 -5.971 -69.058 C -5.971 -68.452 -5.955 -67.781 -5.926 -67.042 C -6.028 -67.065 -6.15 -67.079 -6.294 -67.079 M -5.971 -65.157 C -6.061 -65.071 -6.169 -65.026 -6.294 -65.026 C -6.42 -65.026 -6.529 -65.071 -6.619 -65.157 C -6.708 -65.244 -6.753 -65.35 -6.753 -65.476 C -6.753 -65.603 -6.708 -65.71 -6.619 -65.8 C -6.529 -65.891 -6.42 -65.935 -6.294 -65.935 C -6.169 -65.935 -6.061 -65.891 -5.971 -65.8 C -5.88 -65.71 -5.836 -65.603 -5.836 -65.476 C -5.836 -65.35 -5.88 -65.244 -5.971 -65.157 M -2.883 -70.453 C -3.568 -68.918 -4.009 -67.781 -4.208 -67.042 C -4.333 -67.065 -4.475 -67.079 -4.63 -67.079 C -4.78 -67.079 -4.914 -67.065 -5.034 -67.042 C -4.124 -69.082 -3.544 -70.498 -3.297 -71.29 C -3.244 -71.278 -3.16 -71.271 -3.046 -71.271 C -2.926 -71.271 -2.833 -71.278 -2.767 -71.29 C -2.551 -70.611 -1.957 -69.196 -0.986 -67.042 C -1.063 -67.065 -1.156 -67.079 -1.265 -67.079 C -1.367 -67.079 -1.462 -67.065 -1.552 -67.042 C -1.864 -68.2 -2.308 -69.336 -2.883 -70.453 M 16.805 -56.742 C 16.288 -58.276 15.872 -59.371 15.554 -60.025 C 15.199 -59.312 14.824 -58.217 14.429 -56.742 C 14.339 -56.758 14.252 -56.768 14.168 -56.768 C 14.078 -56.768 13.988 -56.758 13.898 -56.742 C 13.543 -57.977 13.152 -59.074 12.719 -60.035 C 12.143 -58.541 11.768 -57.443 11.594 -56.742 C 11.474 -56.765 11.339 -56.776 11.189 -56.776 C 11.045 -56.776 10.913 -56.765 10.793 -56.742 C 11.681 -58.9 12.203 -60.316 12.359 -60.988 C 12.419 -60.977 12.506 -60.97 12.62 -60.97 C 12.734 -60.97 12.818 -60.977 12.873 -60.988 C 13.076 -60.149 13.454 -59.066 14.005 -57.74 C 14.684 -59.534 15.053 -60.616 15.113 -60.988 C 15.203 -60.97 15.29 -60.96 15.374 -60.96 C 15.464 -60.96 15.554 -60.97 15.644 -60.988 C 15.823 -60.316 16.394 -58.9 17.354 -56.742 C 17.233 -56.752 17.144 -56.758 17.083 -56.758 C 17.028 -56.758 16.936 -56.752 16.805 -56.742 M 13.065 -69.197 C 13.05 -69.741 13.043 -70.057 13.043 -70.146 C 13.043 -70.578 13.129 -70.892 13.304 -71.087 C 13.478 -71.282 13.772 -71.379 14.186 -71.379 C 14.534 -71.379 14.86 -71.278 15.167 -71.075 L 15.104 -70.875 C 14.839 -71.002 14.63 -71.064 14.474 -71.064 C 14.198 -71.064 14.002 -70.977 13.888 -70.799 C 13.774 -70.622 13.718 -70.333 13.718 -69.93 C 13.718 -69.637 13.723 -69.259 13.735 -68.797 C 13.748 -68.335 13.754 -68.018 13.754 -67.842 L 13.772 -67.394 C 13.837 -67.387 13.946 -67.384 14.096 -67.384 C 14.323 -67.384 14.6 -67.394 14.923 -67.411 L 14.923 -67.339 C 14.923 -67.231 14.933 -67.132 14.95 -67.042 C 14.501 -67.079 14.11 -67.096 13.781 -67.096 L 13.781 -66.502 C 13.781 -66.412 13.79 -66.175 13.807 -65.791 C 13.61 -65.894 13.37 -65.969 13.088 -66.016 C 13.101 -66.329 13.105 -66.58 13.105 -66.772 L 13.105 -67.069 C 12.913 -67.069 12.722 -67.06 12.53 -67.042 C 12.53 -67.055 12.532 -67.079 12.539 -67.114 L 12.539 -67.186 C 12.539 -67.234 12.532 -67.312 12.521 -67.42 C 12.683 -67.402 12.838 -67.394 12.989 -67.394 L 13.088 -67.394 L 13.088 -67.699 C 13.088 -68.155 13.08 -68.655 13.065 -69.197 M -8.184 -68.563 C -8.184 -67.49 -8.665 -66.953 -9.624 -66.953 C -10.224 -66.953 -10.694 -67.243 -11.037 -67.825 L -11.037 -67.663 C -11.042 -67.591 -11.046 -67.538 -11.046 -67.501 C -11.046 -67.411 -11.041 -67.258 -11.028 -67.042 C -11.124 -67.065 -11.241 -67.079 -11.378 -67.079 C -11.511 -67.079 -11.634 -67.065 -11.748 -67.042 C -11.724 -67.469 -11.712 -68.149 -11.712 -69.084 L -11.712 -69.724 C -11.712 -70.431 -11.724 -70.954 -11.748 -71.29 C -11.61 -71.26 -11.486 -71.245 -11.378 -71.245 C -11.265 -71.245 -11.139 -71.26 -11.001 -71.29 C -11.019 -70.983 -11.028 -70.423 -11.028 -69.607 L -11.028 -69.202 C -11.028 -68.524 -10.926 -68.057 -10.722 -67.798 C -10.519 -67.541 -10.238 -67.411 -9.885 -67.411 C -9.201 -67.411 -8.859 -67.855 -8.859 -68.743 C -8.859 -69.811 -8.877 -70.66 -8.913 -71.29 C -8.775 -71.26 -8.652 -71.245 -8.544 -71.245 C -8.436 -71.245 -8.313 -71.26 -8.175 -71.29 C -8.193 -70.786 -8.203 -70.312 -8.203 -69.867 C -8.203 -69.73 -8.199 -69.516 -8.193 -69.225 C -8.187 -68.933 -8.184 -68.713 -8.184 -68.563 M 10.883 -65.8 C 10.974 -65.891 11.081 -65.935 11.208 -65.935 C 11.333 -65.935 11.441 -65.891 11.53 -65.8 C 11.622 -65.71 11.666 -65.603 11.666 -65.476 C 11.666 -65.35 11.622 -65.244 11.53 -65.157 C 11.441 -65.071 11.333 -65.026 11.208 -65.026 C 11.081 -65.026 10.974 -65.071 10.883 -65.157 C 10.793 -65.244 10.749 -65.35 10.749 -65.476 C 10.749 -65.603 10.793 -65.71 10.883 -65.8 M 19.094 -79.413 C 19.094 -79.39 19.097 -79.357 19.104 -79.314 L 19.104 -79.215 C 19.104 -78.585 18.946 -78.101 18.631 -77.762 C 18.316 -77.422 17.871 -77.253 17.295 -77.253 C 16.67 -77.253 16.169 -77.456 15.792 -77.861 C 15.414 -78.267 15.225 -78.804 15.225 -79.477 C 15.225 -80.124 15.421 -80.652 15.815 -81.06 C 16.208 -81.467 16.719 -81.671 17.348 -81.671 C 17.901 -81.671 18.411 -81.5 18.878 -81.159 L 18.878 -81.051 C 18.878 -80.979 18.885 -80.865 18.896 -80.708 C 18.489 -81.111 18.027 -81.312 17.51 -81.312 C 16.503 -81.312 15.999 -80.688 15.999 -79.44 L 15.999 -79.413 Z M 16.395 -77.94 C 16.629 -77.663 16.917 -77.523 17.259 -77.523 C 17.607 -77.523 17.881 -77.649 18.082 -77.899 C 18.283 -78.15 18.384 -78.498 18.384 -78.945 L 18.384 -79.098 L 16.017 -79.098 C 16.035 -78.622 16.161 -78.235 16.395 -77.94 M 18.982 -67.079 C 18.867 -67.079 18.766 -67.065 18.676 -67.042 C 18.46 -67.744 18.124 -68.623 17.668 -69.679 L 17.344 -70.425 L 17.028 -69.652 C 16.543 -68.458 16.222 -67.588 16.066 -67.042 C 15.94 -67.065 15.796 -67.079 15.634 -67.079 C 15.466 -67.079 15.32 -67.065 15.194 -67.042 C 15.949 -68.728 16.417 -69.805 16.597 -70.272 L 16.976 -71.262 L 16.769 -71.74 C 16.408 -72.573 16.079 -73.242 15.778 -73.746 C 15.886 -73.729 15.991 -73.718 16.093 -73.718 C 16.201 -73.718 16.303 -73.729 16.399 -73.746 C 16.508 -73.32 16.78 -72.613 17.219 -71.622 L 18.424 -68.896 C 18.814 -68.014 19.099 -67.396 19.279 -67.042 C 19.188 -67.065 19.09 -67.079 18.982 -67.079 M 8.328 -71.029 C 7.89 -71.029 7.523 -70.803 7.23 -70.354 C 7.175 -70.589 7.104 -70.818 7.014 -71.046 C 7.319 -71.262 7.707 -71.371 8.175 -71.371 C 8.649 -71.371 9.032 -71.237 9.327 -70.97 C 9.621 -70.703 9.768 -70.366 9.768 -69.958 C 9.768 -69.436 9.479 -69.091 8.903 -68.923 L 8.292 -68.743 C 7.835 -68.611 7.607 -68.359 7.607 -67.987 C 7.607 -67.765 7.679 -67.583 7.82 -67.443 C 7.96 -67.302 8.145 -67.231 8.373 -67.231 C 8.727 -67.231 9.075 -67.429 9.417 -67.825 C 9.453 -67.633 9.516 -67.445 9.606 -67.258 C 9.288 -67.06 8.914 -66.962 8.48 -66.962 C 8.066 -66.962 7.733 -67.079 7.482 -67.312 C 7.23 -67.544 7.104 -67.841 7.104 -68.201 C 7.104 -68.518 7.181 -68.766 7.333 -68.946 C 7.487 -69.125 7.733 -69.263 8.076 -69.359 L 8.49 -69.475 C 8.963 -69.607 9.201 -69.853 9.201 -70.212 C 9.201 -70.462 9.123 -70.663 8.967 -70.809 C 8.811 -70.956 8.598 -71.029 8.328 -71.029 M 3.982 -57.434 L 3.982 -57.902 C 4.318 -57.631 4.524 -57.467 4.602 -57.406 L 4.602 -58.711 C 4.602 -59.534 4.59 -60.292 4.566 -60.988 C 4.686 -60.97 4.806 -60.96 4.926 -60.96 C 5.052 -60.96 5.182 -60.97 5.313 -60.988 C 5.283 -60.358 5.269 -59.015 5.269 -56.957 C 5.55 -56.771 5.767 -56.633 5.916 -56.543 L 5.916 -56.065 C 5.718 -56.24 5.502 -56.411 5.269 -56.579 L 5.269 -56.479 C 5.269 -55.628 5.283 -54.881 5.313 -54.239 C 5.145 -54.251 5.017 -54.257 4.926 -54.257 C 4.842 -54.257 4.723 -54.251 4.566 -54.239 C 4.597 -54.863 4.611 -55.715 4.611 -56.794 L 4.611 -57.029 C 4.396 -57.185 4.185 -57.32 3.982 -57.434 M 5.134 -68.032 C 5.134 -67.66 5.151 -67.33 5.187 -67.042 C 5.073 -67.065 4.947 -67.079 4.809 -67.079 C 4.672 -67.079 4.542 -67.065 4.423 -67.042 C 4.452 -67.365 4.467 -67.801 4.467 -68.347 C 4.467 -69.595 4.452 -70.572 4.423 -71.28 C 4.542 -71.262 4.656 -71.253 4.764 -71.253 C 4.908 -71.253 5.039 -71.265 5.151 -71.29 C 5.122 -70.839 5.106 -70.234 5.106 -69.472 C 5.106 -68.848 5.18 -68.39 5.328 -68.095 C 5.474 -67.801 5.716 -67.654 6.052 -67.654 C 6.189 -67.654 6.333 -67.693 6.483 -67.771 L 6.555 -67.726 C 6.555 -67.426 6.57 -67.199 6.601 -67.042 C 6.439 -67.012 6.324 -66.997 6.258 -66.997 C 5.832 -66.997 5.457 -67.342 5.134 -68.032 M 11.208 -67.079 C 11.075 -67.079 10.951 -67.065 10.838 -67.042 C 10.869 -67.774 10.883 -68.446 10.883 -69.058 C 10.883 -69.724 10.869 -70.468 10.838 -71.29 C 10.976 -71.26 11.1 -71.245 11.208 -71.245 C 11.321 -71.245 11.444 -71.26 11.576 -71.29 C 11.546 -70.468 11.53 -69.724 11.53 -69.058 C 11.53 -68.452 11.546 -67.781 11.576 -67.042 C 11.474 -67.065 11.352 -67.079 11.208 -67.079 M 2.038 -56.948 C 2.602 -56.948 3.009 -57.23 3.262 -57.793 C 3.327 -57.5 3.409 -57.242 3.505 -57.02 C 3.042 -56.78 2.554 -56.66 2.038 -56.66 C 1.366 -56.66 0.827 -56.861 0.423 -57.263 C 0.018 -57.665 -0.185 -58.202 -0.185 -58.873 C -0.185 -59.54 0.007 -60.074 0.391 -60.475 C 0.774 -60.877 1.282 -61.078 1.912 -61.078 C 2.554 -61.078 3.066 -60.929 3.451 -60.628 C 3.444 -60.592 3.442 -60.533 3.442 -60.448 C 3.442 -60.395 3.448 -60.284 3.46 -60.115 C 3.033 -60.547 2.581 -60.763 2.101 -60.763 C 1.627 -60.763 1.248 -60.594 0.963 -60.255 C 0.677 -59.916 0.535 -59.454 0.535 -58.864 C 0.535 -58.252 0.667 -57.781 0.931 -57.447 C 1.195 -57.114 1.564 -56.948 2.038 -56.948 M 8.57 -58.594 C 8.235 -58.66 7.901 -58.727 7.572 -58.792 C 6.875 -58.943 6.528 -59.333 6.528 -59.963 C 6.528 -60.7 6.942 -61.069 7.771 -61.069 C 8.28 -61.069 8.727 -60.869 9.11 -60.467 C 9.165 -60.814 9.33 -60.988 9.606 -60.988 C 9.773 -60.988 10.02 -60.94 10.344 -60.844 L 10.308 -60.664 C 10.271 -60.67 10.222 -60.673 10.155 -60.673 C 9.975 -60.673 9.858 -60.614 9.804 -60.494 C 9.773 -60.422 9.759 -60.284 9.759 -60.08 L 9.794 -58.29 L 9.794 -58.181 C 9.794 -57.659 9.684 -57.277 9.462 -57.033 C 9.239 -56.79 8.877 -56.669 8.373 -56.669 C 7.809 -56.669 7.326 -56.837 6.924 -57.173 L 6.906 -57.649 L 6.978 -57.649 C 7.26 -57.224 7.647 -57.011 8.139 -57.011 C 8.499 -57.011 8.755 -57.106 8.909 -57.299 C 9.061 -57.492 9.138 -57.788 9.138 -58.189 L 9.138 -58.379 C 9.042 -58.462 8.853 -58.535 8.57 -58.594 M 9.12 -59.917 C 9.12 -60.074 9.068 -60.203 8.967 -60.304 C 8.703 -60.568 8.402 -60.7 8.066 -60.7 C 7.533 -60.7 7.267 -60.415 7.267 -59.845 C 7.267 -59.509 7.413 -59.266 7.707 -59.116 C 7.94 -58.997 8.412 -58.877 9.12 -58.756 Z M 0.467 -79.359 C 0.467 -78.753 0.483 -78.081 0.513 -77.345 C 0.41 -77.368 0.288 -77.379 0.144 -77.379 C 0.011 -77.379 -0.112 -77.368 -0.226 -77.345 C -0.196 -78.075 -0.181 -78.747 -0.181 -79.359 C -0.181 -80.025 -0.196 -80.769 -0.226 -81.591 C -0.087 -81.561 0.035 -81.546 0.144 -81.546 C 0.257 -81.546 0.38 -81.561 0.513 -81.591 C 0.483 -80.769 0.467 -80.025 0.467 -79.359 M 11.944 -87.564 C 11.333 -87.564 10.825 -87.769 10.419 -88.18 C 10.015 -88.591 9.812 -89.12 9.812 -89.769 C 9.812 -90.423 10.012 -90.954 10.411 -91.361 C 10.81 -91.769 11.321 -91.974 11.944 -91.974 C 12.563 -91.974 13.074 -91.771 13.475 -91.366 C 13.877 -90.961 14.078 -90.428 14.078 -89.769 C 14.078 -89.115 13.879 -88.584 13.484 -88.176 C 13.088 -87.768 12.575 -87.564 11.944 -87.564 M 11.944 -91.703 C 11.04 -91.703 10.585 -91.055 10.585 -89.76 C 10.585 -88.476 11.036 -87.833 11.936 -87.833 C 12.848 -87.833 13.304 -88.497 13.304 -89.822 C 13.304 -91.077 12.852 -91.703 11.944 -91.703 M 8.796 -89.827 C 8.802 -89.536 8.805 -89.316 8.805 -89.166 C 8.805 -88.092 8.325 -87.555 7.365 -87.555 C 6.765 -87.555 6.294 -87.846 5.953 -88.428 L 5.953 -88.267 C 5.946 -88.195 5.943 -88.14 5.943 -88.104 C 5.943 -88.014 5.948 -87.861 5.961 -87.645 C 5.865 -87.668 5.749 -87.681 5.61 -87.681 C 5.479 -87.681 5.354 -87.668 5.242 -87.645 C 5.265 -88.07 5.278 -88.752 5.278 -89.688 L 5.278 -90.327 C 5.278 -91.034 5.265 -91.556 5.242 -91.892 C 5.379 -91.862 5.502 -91.847 5.61 -91.847 C 5.724 -91.847 5.851 -91.862 5.988 -91.892 C 5.97 -91.586 5.961 -91.026 5.961 -90.209 L 5.961 -89.804 C 5.961 -89.127 6.063 -88.659 6.268 -88.401 C 6.47 -88.143 6.75 -88.014 7.104 -88.014 C 7.788 -88.014 8.13 -88.458 8.13 -89.345 C 8.13 -90.414 8.112 -91.262 8.076 -91.892 C 8.213 -91.862 8.336 -91.847 8.445 -91.847 C 8.553 -91.847 8.675 -91.862 8.815 -91.892 C 8.796 -91.388 8.787 -90.915 8.787 -90.471 C 8.787 -90.333 8.79 -90.118 8.796 -89.827 M 10.032 -80.169 C 10.032 -80.031 10.036 -79.817 10.042 -79.526 C 10.049 -79.235 10.051 -79.014 10.051 -78.864 C 10.051 -77.791 9.57 -77.253 8.611 -77.253 C 8.011 -77.253 7.54 -77.544 7.198 -78.126 L 7.198 -77.965 C 7.192 -77.893 7.189 -77.838 7.189 -77.802 C 7.189 -77.712 7.194 -77.56 7.208 -77.345 C 7.111 -77.368 6.995 -77.379 6.856 -77.379 C 6.725 -77.379 6.601 -77.368 6.487 -77.345 C 6.512 -77.77 6.523 -78.45 6.523 -79.386 L 6.523 -80.025 C 6.523 -80.733 6.512 -81.254 6.487 -81.591 C 6.625 -81.561 6.748 -81.546 6.856 -81.546 C 6.97 -81.546 7.096 -81.561 7.234 -81.591 C 7.216 -81.285 7.208 -80.724 7.208 -79.908 L 7.208 -79.504 C 7.208 -78.825 7.309 -78.357 7.514 -78.1 C 7.717 -77.841 7.996 -77.712 8.35 -77.712 C 9.034 -77.712 9.376 -78.156 9.376 -79.044 C 9.376 -80.112 9.358 -80.961 9.322 -81.591 C 9.459 -81.561 9.583 -81.546 9.69 -81.546 C 9.799 -81.546 9.922 -81.561 10.06 -81.591 C 10.042 -81.087 10.032 -80.613 10.032 -80.169 M 3.869 -81.312 C 2.861 -81.312 2.356 -80.688 2.356 -79.44 L 2.356 -79.413 L 5.453 -79.413 C 5.453 -79.39 5.456 -79.357 5.462 -79.314 L 5.462 -79.215 C 5.462 -78.585 5.304 -78.101 4.99 -77.762 C 4.675 -77.422 4.229 -77.253 3.653 -77.253 C 3.029 -77.253 2.528 -77.456 2.15 -77.861 C 1.772 -78.267 1.583 -78.804 1.583 -79.477 C 1.583 -80.124 1.779 -80.652 2.172 -81.06 C 2.566 -81.467 3.077 -81.671 3.707 -81.671 C 4.26 -81.671 4.769 -81.5 5.236 -81.159 L 5.236 -81.051 C 5.236 -80.979 5.242 -80.865 5.255 -80.708 C 4.847 -81.111 4.385 -81.312 3.869 -81.312 M 2.753 -77.94 C 2.986 -77.663 3.275 -77.523 3.617 -77.523 C 3.965 -77.523 4.239 -77.649 4.441 -77.899 C 4.641 -78.15 4.742 -78.498 4.742 -78.945 L 4.742 -79.098 L 2.375 -79.098 C 2.393 -78.622 2.519 -78.235 2.753 -77.94 M 3.878 -89.764 C 3.887 -89.456 3.892 -89.244 3.892 -89.129 C 3.892 -88.086 3.41 -87.564 2.448 -87.564 C 1.882 -87.564 1.415 -87.836 1.048 -88.383 C 1.036 -87.807 1.03 -87.396 1.03 -87.149 C 1.03 -86.484 1.043 -85.815 1.066 -85.144 C 0.912 -85.167 0.791 -85.179 0.702 -85.179 C 0.631 -85.179 0.505 -85.167 0.328 -85.144 C 0.358 -86.325 0.373 -87.45 0.373 -88.518 C 0.373 -89.412 0.358 -90.537 0.328 -91.892 C 0.459 -91.862 0.577 -91.847 0.684 -91.847 C 0.796 -91.847 0.921 -91.862 1.057 -91.892 C 1.04 -91.406 1.03 -91.055 1.03 -90.839 L 1.03 -90.2 C 1.03 -89.373 1.091 -88.841 1.21 -88.609 C 1.415 -88.211 1.738 -88.014 2.178 -88.014 C 2.551 -88.014 2.815 -88.132 2.972 -88.369 C 3.128 -88.606 3.208 -88.982 3.208 -89.499 C 3.208 -89.997 3.192 -90.794 3.163 -91.892 C 3.3 -91.862 3.424 -91.847 3.532 -91.847 C 3.646 -91.847 3.768 -91.862 3.901 -91.892 C 3.877 -91.088 3.865 -90.629 3.865 -90.515 C 3.865 -90.324 3.869 -90.073 3.878 -89.764 M 25.128 -91.523 C 24.858 -91.361 24.405 -91.281 23.769 -91.281 L 23.427 -91.281 C 23.313 -91.287 23.259 -91.29 23.265 -91.29 C 22.798 -91.29 22.562 -91.125 22.562 -90.794 C 22.562 -90.512 22.705 -90.373 22.985 -90.373 C 23.017 -90.373 23.087 -90.377 23.198 -90.39 C 23.309 -90.401 23.403 -90.407 23.481 -90.407 C 23.985 -90.407 24.383 -90.28 24.674 -90.025 C 24.965 -89.771 25.11 -89.417 25.11 -88.968 C 25.11 -88.595 24.993 -88.253 24.759 -87.941 L 24.939 -87.941 C 25.113 -87.941 25.299 -87.951 25.497 -87.968 L 25.497 -87.573 C 25.07 -87.621 24.78 -87.645 24.624 -87.645 C 24.546 -87.645 24.391 -87.628 24.161 -87.595 C 23.928 -87.563 23.733 -87.546 23.571 -87.546 C 23.019 -87.546 22.583 -87.684 22.262 -87.959 C 21.941 -88.236 21.78 -88.602 21.78 -89.057 C 21.78 -89.67 22.08 -90.072 22.681 -90.263 C 22.206 -90.503 21.97 -90.782 21.97 -91.101 C 21.97 -91.502 22.198 -91.754 22.653 -91.856 C 21.987 -92.078 21.654 -92.483 21.654 -93.071 C 21.654 -93.461 21.799 -93.774 22.091 -94.011 C 22.382 -94.249 22.779 -94.367 23.283 -94.367 C 23.974 -94.367 24.528 -94.194 24.948 -93.849 C 25.368 -93.504 25.578 -93.056 25.578 -92.504 C 25.578 -92.036 25.428 -91.709 25.128 -91.523 M 22.5 -88.986 C 22.5 -88.632 22.594 -88.345 22.778 -88.126 C 22.963 -87.908 23.205 -87.797 23.504 -87.797 C 24.125 -87.797 24.436 -88.195 24.436 -88.986 C 24.436 -89.778 24.125 -90.173 23.504 -90.173 C 23.193 -90.173 22.948 -90.07 22.769 -89.864 C 22.589 -89.656 22.5 -89.363 22.5 -88.986 M 24.53 -93.742 C 24.244 -93.978 23.877 -94.097 23.427 -94.097 C 23.056 -94.097 22.755 -93.992 22.528 -93.782 C 22.299 -93.573 22.186 -93.299 22.186 -92.964 C 22.186 -92.429 22.45 -92.078 22.978 -91.91 C 23.109 -91.899 23.202 -91.892 23.256 -91.892 C 23.892 -91.892 24.324 -91.946 24.552 -92.054 C 24.823 -92.186 24.957 -92.447 24.957 -92.837 C 24.957 -93.203 24.814 -93.504 24.53 -93.742 M 0.144 -76.236 C 0.27 -76.236 0.377 -76.192 0.467 -76.102 C 0.558 -76.012 0.602 -75.903 0.602 -75.777 C 0.602 -75.652 0.558 -75.545 0.467 -75.459 C 0.377 -75.371 0.27 -75.328 0.144 -75.328 C 0.018 -75.328 -0.091 -75.371 -0.181 -75.459 C -0.271 -75.545 -0.315 -75.652 -0.315 -75.777 C -0.315 -75.903 -0.271 -76.012 -0.181 -76.102 C -0.091 -76.192 0.018 -76.236 0.144 -76.236 M 29.097 -87.645 C 28.88 -88.347 28.544 -89.226 28.088 -90.281 L 27.765 -91.029 L 27.45 -90.254 C 26.963 -89.061 26.643 -88.19 26.486 -87.645 C 26.36 -87.668 26.217 -87.681 26.055 -87.681 C 25.887 -87.681 25.74 -87.668 25.614 -87.645 C 26.37 -89.332 26.837 -90.407 27.018 -90.875 L 27.396 -91.865 L 27.189 -92.342 C 26.829 -93.176 26.499 -93.844 26.199 -94.349 C 26.307 -94.331 26.412 -94.322 26.514 -94.322 C 26.621 -94.322 26.723 -94.331 26.819 -94.349 C 26.929 -93.922 27.201 -93.215 27.638 -92.225 L 28.844 -89.499 C 29.234 -88.616 29.519 -88 29.699 -87.645 C 29.609 -87.668 29.51 -87.681 29.402 -87.681 C 29.288 -87.681 29.186 -87.668 29.097 -87.645 M -9.184 -54.842 C -9.633 -56.606 -10.155 -58.34 -10.749 -60.043 C -11.374 -58.304 -11.949 -56.57 -12.477 -54.842 C -12.567 -54.866 -12.666 -54.878 -12.774 -54.878 C -12.876 -54.878 -12.972 -54.866 -13.062 -54.842 C -13.565 -56.66 -14.13 -58.423 -14.753 -60.133 C -15.3 -58.423 -15.818 -56.66 -16.311 -54.842 C -16.437 -54.866 -16.581 -54.878 -16.742 -54.878 C -16.904 -54.878 -17.048 -54.866 -17.174 -54.842 C -16.353 -57.41 -15.71 -59.458 -15.249 -60.988 C -15.129 -60.958 -15.023 -60.943 -14.933 -60.943 C -14.843 -60.943 -14.739 -60.958 -14.618 -60.988 L -12.936 -55.958 C -12.274 -57.788 -11.724 -59.467 -11.28 -60.997 C -11.19 -60.967 -11.082 -60.953 -10.956 -60.953 C -10.842 -60.953 -10.737 -60.964 -10.641 -60.988 C -9.658 -58.019 -8.974 -55.97 -8.59 -54.842 C -8.68 -54.866 -8.782 -54.878 -8.895 -54.878 C -8.998 -54.878 -9.093 -54.866 -9.184 -54.842 M 18.955 -87.564 C 18.344 -87.564 17.835 -87.769 17.43 -88.18 C 17.024 -88.591 16.822 -89.12 16.822 -89.769 C 16.822 -90.423 17.022 -90.954 17.421 -91.361 C 17.82 -91.769 18.331 -91.974 18.955 -91.974 C 19.573 -91.974 20.083 -91.771 20.486 -91.366 C 20.886 -90.961 21.087 -90.428 21.087 -89.769 C 21.087 -89.115 20.89 -88.584 20.494 -88.176 C 20.099 -87.768 19.584 -87.564 18.955 -87.564 M 18.955 -91.703 C 18.049 -91.703 17.596 -91.055 17.596 -89.76 C 17.596 -88.476 18.046 -87.833 18.946 -87.833 C 19.858 -87.833 20.313 -88.497 20.313 -89.822 C 20.313 -91.077 19.86 -91.703 18.955 -91.703 M 15.437 -85.161 C 15.352 -85.161 15.234 -85.155 15.076 -85.144 C 15.101 -85.473 15.113 -86.062 15.113 -86.907 L 15.113 -89.264 C 15.113 -90.615 15.101 -91.49 15.076 -91.892 C 15.197 -91.875 15.316 -91.865 15.437 -91.865 C 15.563 -91.865 15.692 -91.875 15.823 -91.892 C 15.794 -91.238 15.778 -89.913 15.778 -87.914 C 15.778 -86.62 15.794 -85.694 15.823 -85.144 C 15.656 -85.155 15.526 -85.161 15.437 -85.161 M 13.272 -77.551 C 13.837 -77.551 14.244 -77.833 14.496 -78.396 C 14.563 -78.102 14.644 -77.844 14.739 -77.623 C 14.277 -77.382 13.788 -77.263 13.272 -77.263 C 12.6 -77.263 12.063 -77.463 11.657 -77.865 C 11.252 -78.267 11.05 -78.804 11.05 -79.477 C 11.05 -80.142 11.241 -80.676 11.626 -81.078 C 12.01 -81.48 12.517 -81.682 13.147 -81.682 C 13.788 -81.682 14.301 -81.531 14.685 -81.231 C 14.679 -81.196 14.676 -81.135 14.676 -81.051 C 14.676 -80.997 14.682 -80.886 14.694 -80.717 C 14.269 -81.15 13.815 -81.366 13.335 -81.366 C 12.861 -81.366 12.481 -81.197 12.197 -80.858 C 11.912 -80.52 11.769 -80.055 11.769 -79.467 C 11.769 -78.855 11.901 -78.383 12.166 -78.05 C 12.429 -77.717 12.798 -77.551 13.272 -77.551 M -21.125 -89.827 C -21.119 -89.536 -21.115 -89.316 -21.115 -89.166 C -21.115 -88.092 -21.596 -87.555 -22.555 -87.555 C -23.155 -87.555 -23.625 -87.846 -23.968 -88.428 L -23.968 -88.267 C -23.973 -88.195 -23.977 -88.14 -23.977 -88.104 C -23.977 -88.014 -23.971 -87.861 -23.959 -87.645 C -24.056 -87.668 -24.172 -87.681 -24.309 -87.681 C -24.442 -87.681 -24.565 -87.668 -24.679 -87.645 C -24.655 -88.07 -24.643 -88.752 -24.643 -89.688 L -24.643 -90.327 C -24.643 -91.034 -24.655 -91.556 -24.679 -91.892 C -24.541 -91.862 -24.418 -91.847 -24.309 -91.847 C -24.195 -91.847 -24.069 -91.862 -23.932 -91.892 C -23.95 -91.586 -23.959 -91.026 -23.959 -90.209 L -23.959 -89.804 C -23.959 -89.127 -23.856 -88.659 -23.654 -88.401 C -23.449 -88.143 -23.169 -88.014 -22.816 -88.014 C -22.132 -88.014 -21.791 -88.458 -21.791 -89.345 C -21.791 -90.414 -21.809 -91.262 -21.844 -91.892 C -21.706 -91.862 -21.583 -91.847 -21.475 -91.847 C -21.367 -91.847 -21.245 -91.862 -21.106 -91.892 C -21.125 -91.388 -21.134 -90.915 -21.134 -90.471 C -21.134 -90.333 -21.13 -90.118 -21.125 -89.827 M -16.04 -85.144 C -16.184 -85.185 -16.311 -85.206 -16.418 -85.206 C -16.52 -85.206 -16.649 -85.185 -16.805 -85.144 C -16.787 -85.666 -16.778 -86.208 -16.778 -86.772 L -16.778 -87.402 C -16.784 -87.762 -16.787 -88.092 -16.787 -88.392 C -17.118 -87.84 -17.591 -87.564 -18.208 -87.564 C -18.767 -87.564 -19.224 -87.772 -19.581 -88.189 C -19.938 -88.606 -20.117 -89.156 -20.117 -89.841 C -20.117 -90.488 -19.95 -91.006 -19.617 -91.394 C -19.284 -91.78 -18.848 -91.974 -18.307 -91.974 C -17.612 -91.974 -17.099 -91.656 -16.77 -91.019 C -16.763 -91.098 -16.76 -91.211 -16.76 -91.361 C -16.76 -91.488 -16.766 -91.664 -16.778 -91.892 C -16.64 -91.862 -16.514 -91.847 -16.4 -91.847 C -16.286 -91.847 -16.16 -91.862 -16.022 -91.892 C -16.058 -90.74 -16.076 -89.454 -16.076 -88.032 C -16.076 -86.82 -16.064 -85.857 -16.04 -85.144 M -17.125 -91.124 C -17.361 -91.463 -17.697 -91.631 -18.128 -91.631 C -18.519 -91.631 -18.823 -91.474 -19.041 -91.158 C -19.26 -90.844 -19.37 -90.395 -19.37 -89.814 C -19.37 -89.202 -19.251 -88.73 -19.014 -88.401 C -18.777 -88.07 -18.449 -87.906 -18.028 -87.906 C -17.633 -87.906 -17.324 -88.056 -17.102 -88.355 C -16.881 -88.657 -16.77 -89.084 -16.77 -89.642 C -16.77 -90.29 -16.888 -90.784 -17.125 -91.124 M -16.953 -77.263 C -17.565 -77.263 -18.074 -77.468 -18.479 -77.88 C -18.883 -78.29 -19.086 -78.819 -19.086 -79.467 C -19.086 -80.121 -18.887 -80.652 -18.488 -81.06 C -18.089 -81.467 -17.577 -81.671 -16.953 -81.671 C -16.336 -81.671 -15.827 -81.469 -15.424 -81.064 C -15.021 -80.66 -14.82 -80.127 -14.82 -79.467 C -14.82 -78.813 -15.019 -78.283 -15.415 -77.875 C -15.811 -77.467 -16.323 -77.263 -16.953 -77.263 M -16.953 -81.402 C -17.86 -81.402 -18.312 -80.754 -18.312 -79.458 C -18.312 -78.174 -17.862 -77.533 -16.962 -77.533 C -16.05 -77.533 -15.594 -78.195 -15.594 -79.521 C -15.594 -80.775 -16.049 -81.402 -16.953 -81.402 M -18.442 -68.698 C -18.442 -69.634 -18.239 -70.319 -17.832 -70.754 C -17.423 -71.189 -16.772 -71.407 -15.878 -71.407 C -14.828 -71.407 -14.096 -71.05 -13.683 -70.335 C -13.521 -70.048 -13.413 -69.619 -13.358 -69.049 C -13.329 -68.67 -13.314 -67.993 -13.314 -67.015 L -13.314 -66.781 C -13.314 -66.463 -13.298 -65.918 -13.268 -65.144 C -13.358 -65.167 -13.457 -65.18 -13.565 -65.18 C -13.661 -65.18 -13.754 -65.167 -13.844 -65.144 C -13.821 -66.007 -13.809 -66.946 -13.809 -67.96 C -13.809 -68.62 -13.83 -69.091 -13.871 -69.373 C -13.932 -69.793 -14.058 -70.123 -14.25 -70.363 C -14.587 -70.783 -15.083 -70.992 -15.738 -70.992 C -16.388 -70.992 -16.881 -70.789 -17.217 -70.381 C -17.416 -70.141 -17.546 -69.829 -17.605 -69.445 C -17.648 -69.211 -17.668 -68.866 -17.668 -68.411 L -17.633 -65.134 C -17.752 -65.165 -17.892 -65.18 -18.052 -65.18 C -18.193 -65.18 -18.324 -65.167 -18.442 -65.144 C -18.425 -65.791 -18.416 -66.358 -18.416 -66.844 C -18.416 -67.216 -18.42 -67.61 -18.429 -68.023 C -18.438 -68.438 -18.442 -68.662 -18.442 -68.698 M -1.975 -87.851 C -1.412 -87.851 -1.003 -88.133 -0.752 -88.698 C -0.686 -88.403 -0.604 -88.146 -0.509 -87.924 C -0.971 -87.684 -1.46 -87.564 -1.975 -87.564 C -2.647 -87.564 -3.186 -87.765 -3.591 -88.167 C -3.996 -88.569 -4.198 -89.106 -4.198 -89.778 C -4.198 -90.443 -4.006 -90.978 -3.622 -91.379 C -3.238 -91.781 -2.732 -91.982 -2.102 -91.982 C -1.46 -91.982 -0.946 -91.832 -0.562 -91.533 C -0.569 -91.496 -0.572 -91.437 -0.572 -91.352 C -0.572 -91.298 -0.566 -91.188 -0.553 -91.019 C -0.98 -91.452 -1.432 -91.667 -1.912 -91.667 C -2.387 -91.667 -2.766 -91.498 -3.05 -91.158 C -3.335 -90.82 -3.478 -90.356 -3.478 -89.769 C -3.478 -89.156 -3.347 -88.684 -3.082 -88.351 C -2.818 -88.019 -2.449 -87.851 -1.975 -87.851 M -25.741 -91.577 C -25.92 -91.577 -26.038 -91.517 -26.092 -91.397 C -26.123 -91.325 -26.136 -91.188 -26.136 -90.983 L -26.101 -89.192 L -26.101 -89.084 C -26.101 -88.563 -26.211 -88.18 -26.433 -87.938 C -26.656 -87.694 -27.019 -87.573 -27.523 -87.573 C -28.086 -87.573 -28.569 -87.741 -28.971 -88.077 L -28.989 -88.554 L -28.917 -88.554 C -28.635 -88.127 -28.249 -87.914 -27.756 -87.914 C -27.396 -87.914 -27.14 -88.011 -26.986 -88.203 C -26.833 -88.395 -26.758 -88.691 -26.758 -89.093 L -26.758 -89.283 C -26.853 -89.367 -27.043 -89.439 -27.324 -89.499 C -27.661 -89.565 -27.993 -89.63 -28.323 -89.697 C -29.019 -89.846 -29.368 -90.236 -29.368 -90.866 C -29.368 -91.604 -28.953 -91.974 -28.125 -91.974 C -27.615 -91.974 -27.168 -91.772 -26.783 -91.37 C -26.73 -91.718 -26.564 -91.892 -26.29 -91.892 C -26.123 -91.892 -25.875 -91.844 -25.552 -91.748 L -25.588 -91.569 C -25.624 -91.574 -25.674 -91.577 -25.741 -91.577 M -26.776 -90.821 C -26.776 -90.978 -26.826 -91.106 -26.928 -91.208 C -27.192 -91.473 -27.492 -91.604 -27.828 -91.604 C -28.362 -91.604 -28.629 -91.32 -28.629 -90.749 C -28.629 -90.414 -28.482 -90.17 -28.188 -90.02 C -27.954 -89.9 -27.483 -89.78 -26.776 -89.66 Z M -6.673 -87.555 C -6.098 -87.555 -5.652 -87.725 -5.337 -88.063 C -5.021 -88.402 -4.864 -88.886 -4.864 -89.517 L -4.864 -89.616 C -4.87 -89.657 -4.873 -89.69 -4.873 -89.714 L -7.969 -89.714 L -7.969 -89.742 C -7.969 -90.989 -7.465 -91.613 -6.457 -91.613 C -5.941 -91.613 -5.479 -91.412 -5.071 -91.01 C -5.083 -91.167 -5.089 -91.281 -5.089 -91.352 L -5.089 -91.46 C -5.557 -91.803 -6.067 -91.974 -6.619 -91.974 C -7.249 -91.974 -7.76 -91.769 -8.152 -91.361 C -8.545 -90.954 -8.742 -90.426 -8.742 -89.778 C -8.742 -89.106 -8.554 -88.567 -8.176 -88.162 C -7.797 -87.758 -7.297 -87.555 -6.673 -87.555 M -5.584 -89.399 L -7.951 -89.399 C -7.933 -88.923 -7.806 -88.537 -7.573 -88.242 C -7.339 -87.963 -7.05 -87.825 -6.708 -87.825 C -6.361 -87.825 -6.086 -87.95 -5.885 -88.201 C -5.685 -88.451 -5.584 -88.8 -5.584 -89.246 Z M -12.167 -77.766 L -12.167 -77.397 C -12.395 -77.41 -12.571 -77.416 -12.697 -77.416 C -12.739 -77.416 -12.806 -77.412 -12.896 -77.407 L -13.094 -77.407 C -13.141 -76.903 -13.166 -76.528 -13.166 -76.282 C -13.166 -75.724 -12.911 -75.444 -12.4 -75.444 C -12.208 -75.444 -12.037 -75.481 -11.887 -75.553 L -11.797 -74.851 C -11.839 -74.845 -11.899 -74.842 -11.977 -74.842 C -12.494 -74.842 -12.908 -75.064 -13.218 -75.508 C -13.543 -75.97 -13.708 -76.603 -13.715 -77.407 L -13.831 -77.407 C -13.885 -77.412 -13.927 -77.416 -13.958 -77.416 C -14.029 -77.416 -14.155 -77.41 -14.334 -77.397 L -14.334 -77.739 C -14.071 -77.728 -13.871 -77.721 -13.731 -77.721 L -13.731 -78.855 C -13.731 -80.301 -13.753 -81.213 -13.795 -81.591 C -13.645 -81.561 -13.513 -81.546 -13.399 -81.546 C -13.273 -81.546 -13.141 -81.561 -13.003 -81.591 C -13.052 -80.997 -13.075 -79.708 -13.075 -77.721 C -12.505 -77.752 -12.203 -77.766 -12.167 -77.766 M -1.187 -81.231 C -1.194 -81.196 -1.197 -81.135 -1.197 -81.051 C -1.197 -80.997 -1.191 -80.886 -1.181 -80.717 C -1.606 -81.15 -2.058 -81.366 -2.539 -81.366 C -3.012 -81.366 -3.391 -81.197 -3.676 -80.858 C -3.962 -80.52 -4.104 -80.055 -4.104 -79.467 C -4.104 -78.855 -3.972 -78.383 -3.708 -78.05 C -3.444 -77.717 -3.075 -77.551 -2.602 -77.551 C -2.037 -77.551 -1.629 -77.833 -1.377 -78.396 C -1.312 -78.102 -1.23 -77.844 -1.134 -77.623 C -1.597 -77.382 -2.084 -77.263 -2.602 -77.263 C -3.273 -77.263 -3.812 -77.463 -4.216 -77.865 C -4.622 -78.267 -4.824 -78.804 -4.824 -79.477 C -4.824 -80.142 -4.632 -80.676 -4.248 -81.078 C -3.864 -81.48 -3.357 -81.682 -2.727 -81.682 C -2.084 -81.682 -1.572 -81.531 -1.187 -81.231 M -8.229 -86.007 C -8.229 -85.911 -8.22 -85.824 -8.203 -85.746 C -9.037 -85.764 -9.834 -85.773 -10.596 -85.773 C -11.346 -85.773 -12.063 -85.764 -12.747 -85.746 C -12.735 -85.867 -12.729 -85.958 -12.729 -86.025 C -12.729 -86.085 -12.735 -86.169 -12.747 -86.277 C -12.357 -86.206 -11.805 -86.169 -11.091 -86.169 L -10.849 -86.169 L -10.849 -87.671 C -10.849 -88.835 -10.863 -90.242 -10.893 -91.892 C -10.792 -91.88 -10.647 -91.875 -10.461 -91.875 C -10.275 -91.875 -10.141 -91.88 -10.056 -91.892 C -10.086 -90.512 -10.101 -89.277 -10.101 -88.185 C -10.101 -87.339 -10.086 -86.667 -10.056 -86.169 L -9.795 -86.169 C -9.136 -86.169 -8.604 -86.206 -8.203 -86.277 C -8.22 -86.187 -8.229 -86.097 -8.229 -86.007 M 1.376 -40.822 L 1.389 -40.822 C 21.072 -34.24 21.218 -6.683 21.38 2.147 L 1.362 2.147 L 1.364 -0.618 C 1.836 -0.366 2.222 -0.146 2.729 -0.001 C 3.067 0.095 3.434 0.198 3.792 0.163 C 4.315 0.11 4.509 -0.243 4.452 -0.606 C 4.912 -0.361 5.784 -0.222 6.203 -0.606 C 6.604 -0.973 6.685 -1.572 6.552 -2.069 C 6.084 -1.57 5.485 -1.444 4.85 -1.754 C 4.374 -1.987 3.979 -2.396 3.762 -2.874 C 3.968 -3.11 4.627 -2.921 4.854 -2.804 C 5.103 -2.675 5.323 -2.467 5.603 -2.163 C 5.567 -2.616 5.513 -3.035 5.35 -3.258 C 5.039 -3.68 4.728 -3.767 4.196 -3.952 C 3.783 -4.095 3.367 -4.296 2.958 -4.71 C 2.604 -5.182 2.513 -5.998 2.622 -6.688 C 2.741 -7.45 3.021 -8.255 3.259 -9.041 C 3.493 -9.831 3.687 -10.606 3.63 -11.317 C 4.845 -11.512 6.796 -10.16 7.479 -9.607 C 8.238 -8.995 9.019 -8.281 9.394 -7.588 C 9.701 -7.024 9.79 -5.875 9.213 -4.979 C 8.125 -3.281 8.719 -0.542 11.031 0.158 C 12.448 0.57 14.395 0.174 15.271 -1.406 C 16.123 -2.945 16.319 -4.68 16.293 -6.496 C 16.254 -9.28 16.144 -11.012 16.659 -13.089 C 16.914 -14.105 17.389 -15.045 18.142 -15.906 C 17.549 -16.608 16.562 -16.127 15.802 -15.478 C 14.676 -14.518 13.714 -12.348 13.096 -8.857 L 12.978 -9.289 C 12.949 -11.391 13.223 -12.997 13.676 -14.874 C 14.138 -16.771 14.804 -17.877 16.431 -19.119 C 15.54 -19.926 14.636 -19.58 13.848 -18.979 C 12.285 -17.788 11.607 -16.432 10.969 -13.696 L 10.85 -13.848 C 10.714 -15.453 10.882 -17.046 11.398 -18.489 C 11.89 -19.867 12.844 -21.19 14.071 -22.196 C 13.238 -22.949 12.329 -22.45 11.572 -21.9 C 10.502 -21.126 8.906 -19.628 8.396 -16.693 L 8.261 -16.807 C 8.208 -18.489 8.363 -20 8.727 -21.297 C 9.098 -22.623 10.222 -24.203 11.352 -24.962 C 10.412 -25.756 9.561 -25.269 8.874 -24.74 C 7.042 -23.331 5.893 -21.342 5.471 -18.702 L 5.308 -18.786 C 5.112 -21.654 5.123 -24.8 7.693 -26.638 L 6.673 -27.281 L 7.271 -28.292 C 7.533 -28.741 9.912 -27.521 10.879 -28.292 C 11.267 -28.605 11.521 -29.104 11.24 -29.738 L 11.182 -29.714 C 11.155 -29.266 10.928 -29.032 10.633 -28.909 C 10.203 -28.729 9.544 -28.775 9.05 -29.341 C 8.096 -29.988 7.421 -29.527 6.93 -30.174 C 6.636 -30.554 6.644 -30.893 6.767 -31.271 L 6.718 -31.3 C 5.404 -30.612 6.633 -29.338 6.389 -28.912 L 5.747 -27.789 L 4.718 -28.414 C 4.626 -27.662 3.452 -23.658 2.746 -23.387 C 2.56 -23.651 2.571 -24.351 2.542 -24.834 C 2.505 -25.509 2.815 -26.001 2.746 -26.943 C 2.718 -27.352 2.511 -27.919 2.184 -28.482 C 2.507 -28.693 2.653 -29.025 2.645 -29.411 C 2.636 -29.842 2.442 -30.343 2.308 -30.753 C 2.136 -31.276 1.986 -31.678 2.184 -31.678 C 2.749 -31.383 3.276 -31.331 3.733 -31.462 C 4.391 -31.651 4.81 -32.281 5.405 -32.588 C 6.092 -32.942 6.677 -32.882 7.463 -33.179 C 6.391 -33.589 6.237 -34.688 4.78 -34.461 C 3.901 -34.325 2.587 -32.668 2.348 -32.804 C 2.18 -33.295 2.288 -33.869 2.382 -34.641 C 2.429 -35.026 2.474 -35.464 2.477 -35.964 C 2.481 -36.467 2.446 -37.033 2.337 -37.678 C 2.188 -38.538 1.877 -39.642 1.376 -40.822" style="fill-rule: evenodd; fill-opacity: 1; fill: rgb(255, 255, 255);" transform="matrix(1, 0, 0, -1, 159.082001, 412.588623)"/>
</svg>