<?xml version="1.0" encoding="utf-8"?>
<svg viewBox="353.842 400.995 283.708 62.891" xmlns="http://www.w3.org/2000/svg">
  <path d="M 0 0 L 0 0 L -37.893 4.001 L -37.893 3.929 C -36.18 3.208 -35.685 1.144 -36.988 -0.169 L 0 -0.17 Z M -36.988 -44.983 L -36.988 -44.983 L -36.988 -0.17 C -38.424 -1.192 -40.146 -0.742 -40.789 1.052 L -40.876 1.052 L -37.158 -44.983 Z M -16.345 -7.159 L -16.345 -7.159 C -16.374 -6.652 -17.494 -6.899 -17.865 -7.252 C -18.035 -7.413 -18.107 -7.622 -18.208 -7.83 C -18.195 -7.867 -18.098 -7.782 -17.895 -7.721 C -17.56 -7.62 -16.972 -7.729 -16.791 -7.509 C -16.666 -7.371 -16.508 -7.237 -16.345 -7.159 M 0 -4.376 L 0 -4.378 L -18.917 -4.376 L -18.917 -6.99 C -18.469 -6.753 -18.107 -6.543 -17.626 -6.407 C -17.306 -6.316 -16.961 -6.217 -16.622 -6.252 C -16.128 -6.304 -15.946 -6.635 -15.999 -6.98 C -15.563 -6.747 -14.741 -6.617 -14.346 -6.978 C -13.967 -7.326 -13.889 -7.893 -14.015 -8.364 C -14.457 -7.892 -15.023 -7.772 -15.623 -8.065 C -16.072 -8.285 -16.446 -8.672 -16.65 -9.125 C -16.457 -9.347 -15.832 -9.169 -15.619 -9.058 C -15.382 -8.935 -15.175 -8.739 -14.911 -8.452 C -14.944 -8.879 -14.995 -9.276 -15.15 -9.486 C -15.444 -9.887 -15.738 -9.968 -16.238 -10.143 C -16.629 -10.277 -17.024 -10.466 -17.411 -10.86 C -17.746 -11.306 -17.83 -12.075 -17.728 -12.729 C -17.615 -13.448 -17.35 -14.207 -17.127 -14.952 C -16.904 -15.697 -16.723 -16.43 -16.775 -17.102 C -15.628 -17.287 -13.783 -16.008 -13.136 -15.486 C -12.418 -14.907 -11.682 -14.234 -11.327 -13.579 C -11.037 -13.045 -10.952 -11.96 -11.497 -11.112 C -12.527 -9.507 -11.964 -6.919 -9.782 -6.259 C -8.442 -5.869 -6.601 -6.244 -5.774 -7.737 C -4.969 -9.191 -4.783 -10.83 -4.807 -12.547 C -4.844 -15.177 -4.949 -16.814 -4.46 -18.776 C -4.222 -19.738 -3.771 -20.625 -3.06 -21.44 C -3.619 -22.103 -4.555 -21.648 -5.272 -21.035 C -6.336 -20.127 -7.244 -18.076 -7.828 -14.779 L -7.942 -15.187 C -7.968 -17.172 -7.71 -18.69 -7.28 -20.465 C -6.846 -22.258 -6.214 -23.303 -4.677 -24.478 C -5.52 -25.24 -6.374 -24.912 -7.118 -24.344 C -8.598 -23.217 -9.233 -21.937 -9.839 -19.351 L -9.951 -19.496 C -10.078 -21.014 -9.92 -22.518 -9.433 -23.881 C -8.968 -25.187 -8.066 -26.435 -6.906 -27.384 C -7.694 -28.096 -8.554 -27.625 -9.269 -27.107 C -10.28 -26.374 -11.788 -24.959 -12.271 -22.183 L -12.396 -22.293 C -12.448 -23.881 -12.3 -25.31 -11.957 -26.537 C -11.607 -27.791 -10.544 -29.282 -9.477 -29.999 C -10.366 -30.751 -11.169 -30.289 -11.82 -29.79 C -13.549 -28.459 -14.637 -26.58 -15.035 -24.083 L -15.189 -24.162 C -15.375 -26.874 -15.363 -29.849 -12.933 -31.583 L -13.897 -32.191 L -13.334 -33.149 C -13.086 -33.572 -10.839 -32.419 -9.924 -33.149 C -9.556 -33.443 -9.318 -33.916 -9.584 -34.513 L -9.639 -34.489 C -9.663 -34.066 -9.877 -33.845 -10.157 -33.728 C -10.565 -33.56 -11.187 -33.604 -11.652 -34.137 C -12.554 -34.747 -13.19 -34.313 -13.657 -34.923 C -13.933 -35.285 -13.927 -35.604 -13.81 -35.959 L -13.855 -35.988 C -15.1 -35.338 -13.938 -34.133 -14.167 -33.731 L -14.773 -32.669 L -15.747 -33.259 C -15.835 -32.548 -16.943 -28.767 -17.612 -28.511 C -17.785 -28.76 -17.776 -29.422 -17.803 -29.877 C -17.838 -30.516 -17.545 -30.981 -17.61 -31.871 C -17.637 -32.258 -17.832 -32.792 -18.141 -33.325 C -17.836 -33.524 -17.697 -33.838 -17.705 -34.202 C -17.713 -34.61 -17.896 -35.083 -18.023 -35.469 C -18.186 -35.966 -18.328 -36.343 -18.141 -36.343 C -17.609 -36.065 -17.108 -36.016 -16.678 -36.141 C -16.055 -36.319 -15.66 -36.913 -15.098 -37.203 C -14.448 -37.538 -13.894 -37.479 -13.15 -37.762 C -14.165 -38.149 -14.311 -39.186 -15.688 -38.973 C -16.518 -38.845 -17.761 -37.277 -17.987 -37.406 C -18.146 -37.872 -18.043 -38.412 -17.955 -39.143 C -17.911 -39.508 -17.868 -39.919 -17.864 -40.394 C -17.859 -40.867 -17.895 -41.403 -17.998 -42.012 C -18.137 -42.827 -18.431 -43.87 -18.906 -44.983 L -18.894 -44.983 C -0.291 -38.765 -0.155 -12.723 0 -4.376 M -8.466 -9.029 C -8.083 -9.029 -7.771 -8.698 -7.771 -8.294 C -7.771 -7.89 -8.083 -7.56 -8.466 -7.56 C -8.849 -7.56 -9.161 -7.89 -9.161 -8.294 C -9.161 -8.698 -8.849 -9.029 -8.466 -9.029 M -9.743 -10.32 C -9.361 -10.32 -9.048 -9.99 -9.048 -9.586 C -9.048 -9.182 -9.36 -8.851 -9.743 -8.851 C -10.126 -8.851 -10.438 -9.182 -10.438 -9.586 C -10.438 -9.99 -10.126 -10.32 -9.743 -10.32 M -7.385 -10.531 C -7.002 -10.531 -6.689 -10.202 -6.689 -9.796 C -6.689 -9.392 -7.001 -9.062 -7.385 -9.062 C -7.768 -9.062 -8.081 -9.393 -8.081 -9.796 C -8.081 -10.202 -7.768 -10.531 -7.385 -10.531 M -8.499 -9.418 L -8.499 -9.417 L -8.612 -9.417 C -9.124 -14.584 -13.312 -20.11 -18.911 -20.29 L -18.911 -22.242 C -11.994 -21.805 -8.638 -16.388 -8.499 -9.418 M -21.488 -7.159 C -21.324 -7.237 -21.167 -7.37 -21.042 -7.509 C -20.86 -7.729 -20.273 -7.62 -19.938 -7.721 C -19.735 -7.782 -19.638 -7.867 -19.625 -7.83 C -19.727 -7.622 -19.798 -7.413 -19.968 -7.251 C -20.337 -6.899 -21.458 -6.651 -21.488 -7.159 M -18.926 -44.983 L -18.926 -44.983 L -18.921 -6.992 C -19.368 -6.754 -19.73 -6.544 -20.21 -6.408 C -20.531 -6.318 -20.876 -6.219 -21.215 -6.254 C -21.709 -6.304 -21.892 -6.637 -21.837 -6.982 C -22.274 -6.749 -23.097 -6.619 -23.491 -6.98 C -23.87 -7.328 -23.948 -7.894 -23.822 -8.366 C -23.382 -7.894 -22.813 -7.773 -22.214 -8.066 C -21.766 -8.286 -21.392 -8.673 -21.187 -9.126 C -21.38 -9.349 -22.005 -9.171 -22.218 -9.06 C -22.455 -8.937 -22.662 -8.741 -22.926 -8.453 C -22.894 -8.88 -22.842 -9.277 -22.687 -9.487 C -22.393 -9.888 -22.099 -9.97 -21.599 -10.144 C -21.208 -10.28 -20.813 -10.469 -20.426 -10.862 C -20.091 -11.306 -20.007 -12.077 -20.109 -12.73 C -20.223 -13.449 -20.487 -14.208 -20.71 -14.953 C -20.933 -15.699 -21.115 -16.432 -21.062 -17.104 C -22.209 -17.287 -24.054 -16.009 -24.701 -15.487 C -25.419 -14.909 -26.155 -14.234 -26.51 -13.58 C -26.8 -13.047 -26.885 -11.961 -26.34 -11.113 C -25.31 -9.51 -25.873 -6.92 -28.055 -6.26 C -29.395 -5.87 -31.237 -6.245 -32.063 -7.738 C -32.869 -9.193 -33.054 -10.831 -33.03 -12.548 C -32.993 -15.18 -32.888 -16.815 -33.377 -18.777 C -33.616 -19.74 -34.066 -20.627 -34.777 -21.442 C -34.218 -22.104 -33.282 -21.651 -32.565 -21.037 C -31.501 -20.129 -30.593 -18.078 -30.009 -14.781 L -29.896 -15.188 C -29.869 -17.175 -30.127 -18.692 -30.557 -20.465 C -30.99 -22.259 -31.623 -23.304 -33.16 -24.479 C -32.315 -25.241 -31.463 -24.911 -30.718 -24.345 C -29.238 -23.219 -28.603 -21.938 -27.996 -19.351 L -27.885 -19.496 C -27.757 -21.013 -27.915 -22.519 -28.402 -23.882 C -28.868 -25.187 -29.769 -26.436 -30.929 -27.385 C -30.141 -28.097 -29.281 -27.626 -28.566 -27.107 C -27.556 -26.375 -26.047 -24.959 -25.565 -22.184 L -25.438 -22.292 C -25.386 -23.881 -25.535 -25.31 -25.878 -26.537 C -26.228 -27.792 -27.29 -29.282 -28.358 -29.999 C -27.47 -30.752 -26.665 -30.289 -26.015 -29.79 C -24.286 -28.459 -23.198 -26.58 -22.801 -24.083 L -22.646 -24.162 C -22.46 -26.875 -22.472 -29.849 -24.902 -31.583 L -23.937 -32.191 L -24.501 -33.149 C -24.75 -33.571 -26.998 -32.419 -27.913 -33.149 C -28.28 -33.443 -28.517 -33.916 -28.251 -34.513 L -28.197 -34.489 C -28.171 -34.066 -27.958 -33.845 -27.678 -33.728 C -27.27 -33.559 -26.648 -33.604 -26.183 -34.137 C -25.281 -34.747 -24.645 -34.313 -24.178 -34.923 C -23.902 -35.285 -23.906 -35.604 -24.024 -35.959 L -23.978 -35.988 C -22.734 -35.338 -23.896 -34.133 -23.667 -33.731 L -23.061 -32.669 L -22.088 -33.259 C -22 -32.548 -20.89 -28.767 -20.221 -28.511 C -20.046 -28.76 -20.055 -29.422 -20.031 -29.877 C -19.995 -30.514 -20.288 -30.981 -20.223 -31.871 C -20.196 -32.258 -20.001 -32.792 -19.692 -33.325 C -19.997 -33.523 -20.135 -33.836 -20.128 -34.202 C -20.121 -34.61 -19.937 -35.083 -19.811 -35.469 C -19.647 -35.966 -19.504 -36.343 -19.693 -36.343 C -20.225 -36.066 -20.725 -36.016 -21.155 -36.14 C -21.778 -36.319 -22.172 -36.913 -22.736 -37.203 C -23.384 -37.538 -23.938 -37.479 -24.682 -37.762 C -23.668 -38.149 -23.521 -39.186 -22.144 -38.973 C -21.315 -38.844 -20.072 -37.277 -19.846 -37.406 C -19.688 -37.872 -19.79 -38.412 -19.877 -39.143 C -19.921 -39.508 -19.964 -39.919 -19.968 -40.393 C -19.972 -40.867 -19.937 -41.404 -19.834 -42.012 C -19.695 -42.825 -19.41 -43.872 -18.937 -44.983 Z M -29.365 -9.029 L -29.365 -9.029 C -28.983 -9.029 -28.671 -8.698 -28.671 -8.294 C -28.671 -7.89 -28.983 -7.56 -29.365 -7.56 C -29.749 -7.56 -30.062 -7.89 -30.062 -8.294 C -30.062 -8.698 -29.749 -9.029 -29.365 -9.029 M -28.088 -10.319 L -28.088 -10.319 C -27.706 -10.319 -27.393 -9.99 -27.393 -9.584 C -27.393 -9.181 -27.706 -8.85 -28.088 -8.85 C -28.471 -8.85 -28.784 -9.18 -28.784 -9.584 C -28.784 -9.99 -28.471 -10.319 -28.088 -10.319 M -30.447 -10.531 L -30.447 -10.531 C -30.064 -10.531 -29.752 -10.202 -29.751 -9.796 C -29.751 -9.393 -30.064 -9.062 -30.447 -9.062 C -30.831 -9.062 -31.142 -9.392 -31.142 -9.796 C -31.142 -10.202 -30.829 -10.531 -30.447 -10.531 M -29.333 -9.418 C -29.194 -16.386 -25.838 -21.805 -18.92 -22.242 L -18.92 -20.29 C -24.52 -20.11 -28.708 -14.584 -29.219 -9.417 L -29.333 -9.417 Z M 46.495 -15.711 C 46.429 -16.076 46.396 -16.61 46.396 -17.312 L 46.237 -17.418 C 45.907 -17.236 45.59 -17.144 45.286 -17.144 C 44.546 -17.144 44.014 -17.487 43.69 -18.177 C 43.367 -18.865 43.205 -19.94 43.205 -21.401 C 43.205 -23.185 43.237 -24.603 43.304 -25.658 C 43.054 -25.602 42.769 -25.573 42.451 -25.573 C 42.213 -25.573 41.963 -25.595 41.699 -25.637 C 41.765 -23.979 41.798 -21.688 41.798 -18.766 C 41.798 -17.487 41.765 -16.469 41.699 -15.711 C 41.963 -15.767 42.248 -15.795 42.552 -15.795 C 42.855 -15.795 43.133 -15.767 43.384 -15.711 C 43.304 -16.384 43.265 -17.159 43.265 -18.028 C 43.978 -16.413 44.803 -15.604 45.742 -15.604 C 45.888 -15.604 46.139 -15.64 46.495 -15.711 M 56.843 -20.684 C 56.843 -22.229 56.398 -23.477 55.514 -24.424 C 54.629 -25.374 53.505 -25.847 52.145 -25.847 C 50.77 -25.847 49.645 -25.369 48.765 -24.414 C 47.886 -23.458 47.447 -22.216 47.447 -20.684 C 47.447 -19.167 47.893 -17.928 48.784 -16.964 C 49.677 -16.002 50.797 -15.522 52.145 -15.522 C 53.532 -15.522 54.661 -15.998 55.534 -16.955 C 56.406 -17.91 56.843 -19.153 56.843 -20.684 M 55.138 -20.811 C 55.138 -17.706 54.133 -16.153 52.124 -16.153 C 50.143 -16.153 49.15 -17.657 49.15 -20.663 C 49.15 -23.698 50.149 -25.216 52.145 -25.216 C 54.14 -25.216 55.138 -23.748 55.138 -20.811 M 66.198 -16.363 C 65.986 -16.883 65.808 -17.487 65.662 -18.177 C 65.107 -16.856 64.209 -16.194 62.967 -16.194 C 61.923 -16.194 61.11 -16.586 60.528 -17.365 C 59.946 -18.145 59.656 -19.251 59.656 -20.684 C 59.656 -22.06 59.97 -23.146 60.598 -23.941 C 61.225 -24.735 62.062 -25.129 63.105 -25.129 C 64.162 -25.129 65.161 -24.625 66.099 -23.614 C 66.071 -24.006 66.06 -24.266 66.06 -24.392 C 66.06 -24.589 66.065 -24.73 66.079 -24.814 C 65.232 -25.518 64.103 -25.868 62.689 -25.868 C 61.302 -25.868 60.185 -25.397 59.34 -24.457 C 58.493 -23.515 58.071 -22.265 58.071 -20.705 C 58.071 -19.132 58.517 -17.875 59.409 -16.932 C 60.301 -15.991 61.487 -15.521 62.967 -15.521 C 64.103 -15.521 65.181 -15.802 66.198 -16.363 M 70.935 -15.247 C 70.604 -15.456 70.129 -15.781 69.507 -16.217 C 69.507 -21.036 69.541 -24.183 69.607 -25.657 C 69.316 -25.616 69.031 -25.595 68.755 -25.595 C 68.489 -25.595 68.226 -25.616 67.961 -25.657 C 68.014 -24.028 68.042 -22.25 68.042 -20.326 L 68.042 -17.27 C 67.868 -17.411 67.412 -17.797 66.673 -18.429 L 66.673 -17.333 C 67.122 -17.066 67.585 -16.751 68.061 -16.385 L 68.061 -15.836 C 68.061 -13.309 68.027 -11.314 67.961 -9.853 C 68.305 -9.881 68.569 -9.894 68.755 -9.894 C 68.952 -9.894 69.235 -9.881 69.607 -9.853 C 69.541 -11.355 69.507 -13.105 69.507 -15.098 L 69.507 -15.332 C 70.022 -14.938 70.499 -14.537 70.935 -14.129 Z M 80.111 -25.32 C 79.399 -25.544 78.856 -25.658 78.487 -25.658 C 77.879 -25.658 77.516 -25.25 77.396 -24.435 C 76.551 -25.377 75.565 -25.848 74.443 -25.848 C 72.619 -25.848 71.708 -24.982 71.708 -23.256 C 71.708 -21.78 72.475 -20.867 74.007 -20.515 C 74.733 -20.361 75.467 -20.207 76.207 -20.05 C 76.828 -19.912 77.244 -19.743 77.456 -19.548 L 77.456 -19.104 C 77.456 -18.162 77.287 -17.466 76.951 -17.018 C 76.613 -16.566 76.049 -16.343 75.256 -16.343 C 74.172 -16.343 73.32 -16.842 72.699 -17.839 L 72.54 -17.839 L 72.579 -16.724 C 73.465 -15.936 74.529 -15.542 75.771 -15.542 C 76.881 -15.542 77.68 -15.825 78.17 -16.396 C 78.658 -16.964 78.902 -17.859 78.902 -19.083 L 78.902 -19.335 L 78.824 -23.529 C 78.824 -24.007 78.856 -24.331 78.923 -24.499 C 79.041 -24.78 79.299 -24.92 79.696 -24.92 C 79.841 -24.92 79.954 -24.913 80.032 -24.899 Z M 77.417 -23.15 L 77.417 -20.432 C 75.856 -20.713 74.819 -20.995 74.305 -21.274 C 73.657 -21.625 73.333 -22.196 73.333 -22.981 C 73.333 -24.316 73.921 -24.982 75.098 -24.982 C 75.837 -24.982 76.498 -24.675 77.079 -24.056 C 77.305 -23.817 77.417 -23.515 77.417 -23.15 M 94.978 -15.711 C 92.864 -20.768 91.608 -24.084 91.212 -25.658 C 91.013 -25.615 90.815 -25.595 90.618 -25.595 C 90.432 -25.595 90.241 -25.615 90.042 -25.658 C 89.91 -24.786 89.097 -22.25 87.604 -18.051 C 86.389 -21.154 85.557 -23.691 85.106 -25.658 C 84.987 -25.63 84.804 -25.615 84.552 -25.615 C 84.301 -25.615 84.108 -25.63 83.978 -25.658 C 83.633 -24.084 82.484 -20.768 80.527 -15.711 C 80.793 -15.767 81.084 -15.795 81.4 -15.795 C 81.73 -15.795 82.026 -15.767 82.292 -15.711 C 82.675 -17.354 83.501 -19.925 84.771 -23.425 C 85.721 -21.176 86.587 -18.605 87.366 -15.711 C 87.564 -15.752 87.764 -15.773 87.961 -15.773 C 88.146 -15.773 88.339 -15.752 88.536 -15.711 C 89.408 -19.167 90.234 -21.733 91.013 -23.403 C 91.713 -21.871 92.632 -19.307 93.769 -15.711 C 94.061 -15.74 94.265 -15.752 94.383 -15.752 C 94.515 -15.752 94.714 -15.74 94.978 -15.711 M 113.254 -11.263 C 113.188 -13.076 113.153 -14.354 113.153 -15.099 L 113.153 -15.648 C 113.153 -17.937 113.121 -19.525 113.054 -20.41 C 112.937 -21.745 112.698 -22.75 112.341 -23.425 C 111.431 -25.096 109.817 -25.932 107.505 -25.932 C 105.535 -25.932 104.103 -25.421 103.204 -24.404 C 102.306 -23.386 101.855 -21.78 101.855 -19.589 C 101.855 -19.504 101.865 -18.977 101.886 -18.007 C 101.905 -17.038 101.916 -16.118 101.916 -15.247 C 101.916 -14.108 101.896 -12.782 101.855 -11.263 C 102.116 -11.32 102.404 -11.349 102.718 -11.349 C 103.07 -11.349 103.377 -11.314 103.64 -11.243 L 103.561 -18.913 C 103.561 -19.981 103.606 -20.79 103.699 -21.337 C 103.831 -22.237 104.116 -22.967 104.553 -23.529 C 105.294 -24.484 106.381 -24.962 107.813 -24.962 C 109.256 -24.962 110.35 -24.472 111.091 -23.486 C 111.515 -22.925 111.792 -22.152 111.924 -21.17 C 112.017 -20.509 112.063 -19.406 112.063 -17.859 C 112.063 -15.487 112.038 -13.288 111.984 -11.263 C 112.182 -11.32 112.388 -11.349 112.598 -11.349 C 112.838 -11.349 113.054 -11.32 113.254 -11.263 M 123.878 -25.658 C 123.573 -25.588 123.303 -25.552 123.065 -25.552 C 122.826 -25.552 122.557 -25.588 122.251 -25.658 C 122.331 -24.184 122.372 -22.195 122.372 -19.694 C 122.372 -17.614 121.617 -16.574 120.112 -16.574 C 119.332 -16.574 118.717 -16.876 118.269 -17.482 C 117.818 -18.085 117.595 -19.182 117.595 -20.768 L 117.595 -21.718 C 117.595 -23.626 117.614 -24.94 117.653 -25.658 C 117.35 -25.588 117.072 -25.552 116.82 -25.552 C 116.583 -25.552 116.312 -25.588 116.009 -25.658 C 116.061 -24.872 116.087 -23.648 116.087 -21.99 L 116.087 -20.496 C 116.087 -18.302 116.061 -16.707 116.009 -15.711 C 116.26 -15.767 116.53 -15.795 116.82 -15.795 C 117.124 -15.795 117.382 -15.767 117.595 -15.711 C 117.566 -16.217 117.555 -16.574 117.555 -16.785 C 117.555 -16.869 117.561 -16.996 117.575 -17.166 L 117.575 -17.543 C 118.326 -16.182 119.363 -15.5 120.687 -15.5 C 122.801 -15.5 123.857 -16.757 123.857 -19.272 C 123.857 -19.623 123.852 -20.14 123.838 -20.823 C 123.825 -21.502 123.817 -22.004 123.817 -22.329 C 123.817 -23.369 123.838 -24.479 123.878 -25.658 M 128.436 -12.044 C 128.436 -12.338 128.337 -12.592 128.14 -12.803 C 127.94 -13.013 127.703 -13.119 127.427 -13.119 C 127.148 -13.119 126.91 -13.013 126.713 -12.803 C 126.514 -12.592 126.415 -12.338 126.415 -12.044 C 126.415 -11.749 126.514 -11.5 126.713 -11.295 C 126.91 -11.093 127.148 -10.99 127.427 -10.99 C 127.703 -10.99 127.94 -11.093 128.14 -11.295 C 128.337 -11.5 128.436 -11.749 128.436 -12.044 M 128.238 -25.658 C 127.946 -25.588 127.676 -25.552 127.427 -25.552 C 127.187 -25.552 126.916 -25.588 126.612 -25.658 C 126.679 -23.733 126.713 -21.99 126.713 -20.431 C 126.713 -18.998 126.679 -17.424 126.612 -15.711 C 126.864 -15.767 127.134 -15.795 127.427 -15.795 C 127.742 -15.795 128.014 -15.767 128.238 -15.711 C 128.172 -17.439 128.14 -19.012 128.14 -20.431 C 128.14 -21.99 128.172 -23.733 128.238 -25.658 M 138.545 -15.711 C 136.404 -20.754 135.097 -24.07 134.62 -25.658 C 134.476 -25.63 134.271 -25.615 134.007 -25.615 C 133.756 -25.615 133.57 -25.63 133.45 -25.658 C 132.909 -23.803 131.634 -20.486 129.625 -15.711 C 129.889 -15.767 130.187 -15.795 130.517 -15.795 C 130.86 -15.795 131.171 -15.767 131.449 -15.711 C 131.886 -17.439 132.856 -20.103 134.362 -23.698 C 135.631 -21.084 136.609 -18.423 137.297 -15.711 C 137.495 -15.767 137.706 -15.795 137.932 -15.795 C 138.168 -15.795 138.373 -15.767 138.545 -15.711 M 147.443 -20.095 L 147.443 -20.327 C 147.431 -20.425 147.426 -20.502 147.426 -20.557 L 140.605 -20.557 L 140.605 -20.623 C 140.605 -23.545 141.716 -25.004 143.936 -25.004 C 145.072 -25.004 146.09 -24.534 146.988 -23.592 C 146.961 -23.958 146.949 -24.224 146.949 -24.393 L 146.949 -24.646 C 145.918 -25.446 144.796 -25.847 143.58 -25.847 C 142.192 -25.847 141.064 -25.37 140.199 -24.413 C 139.334 -23.459 138.9 -22.223 138.9 -20.705 C 138.9 -19.131 139.316 -17.871 140.149 -16.922 C 140.982 -15.973 142.085 -15.5 143.46 -15.5 C 144.729 -15.5 145.709 -15.897 146.403 -16.69 C 147.097 -17.484 147.443 -18.619 147.443 -20.095 M 145.859 -19.82 L 145.859 -19.459 C 145.859 -18.414 145.638 -17.598 145.194 -17.012 C 144.753 -16.427 144.146 -16.133 143.38 -16.133 C 142.628 -16.133 141.992 -16.457 141.478 -17.105 C 140.963 -17.799 140.686 -18.704 140.646 -19.82 Z M 154.085 -15.711 C 154.019 -16.076 153.985 -16.61 153.985 -17.312 L 153.827 -17.418 C 153.496 -17.236 153.18 -17.144 152.876 -17.144 C 152.135 -17.144 151.603 -17.487 151.279 -18.177 C 150.955 -18.865 150.793 -19.94 150.793 -21.401 C 150.793 -23.185 150.827 -24.603 150.894 -25.658 C 150.643 -25.602 150.358 -25.573 150.042 -25.573 C 149.802 -25.573 149.552 -25.595 149.287 -25.637 C 149.354 -23.979 149.386 -21.688 149.386 -18.766 C 149.386 -17.487 149.354 -16.469 149.287 -15.711 C 149.552 -15.767 149.836 -15.795 150.14 -15.795 C 150.442 -15.795 150.721 -15.767 150.973 -15.711 C 150.894 -16.384 150.853 -17.159 150.853 -18.028 C 151.566 -16.413 152.394 -15.604 153.331 -15.604 C 153.478 -15.604 153.727 -15.64 154.085 -15.711 M 160.486 -22.54 C 160.486 -23.494 160.162 -24.284 159.516 -24.909 C 158.868 -25.536 158.021 -25.847 156.978 -25.847 C 155.948 -25.847 155.096 -25.595 154.421 -25.089 C 154.619 -24.556 154.778 -24.014 154.896 -23.466 C 155.545 -24.521 156.352 -25.046 157.315 -25.046 C 157.911 -25.046 158.38 -24.875 158.723 -24.531 C 159.066 -24.188 159.238 -23.723 159.238 -23.132 C 159.238 -22.292 158.715 -21.717 157.672 -21.409 L 156.761 -21.134 C 156.007 -20.911 155.463 -20.587 155.126 -20.168 C 154.788 -19.749 154.619 -19.167 154.619 -18.423 C 154.619 -17.581 154.896 -16.888 155.452 -16.341 C 156.007 -15.794 156.741 -15.522 157.651 -15.522 C 158.604 -15.522 159.43 -15.752 160.13 -16.217 C 159.932 -16.653 159.793 -17.094 159.715 -17.544 C 158.961 -16.618 158.193 -16.153 157.414 -16.153 C 156.912 -16.153 156.507 -16.318 156.195 -16.648 C 155.886 -16.979 155.729 -17.403 155.729 -17.924 C 155.729 -18.794 156.232 -19.385 157.235 -19.695 L 158.584 -20.116 C 159.854 -20.508 160.486 -21.317 160.486 -22.54 M 164.093 -12.044 C 164.093 -12.338 163.994 -12.592 163.798 -12.803 C 163.599 -13.013 163.36 -13.119 163.085 -13.119 C 162.807 -13.119 162.567 -13.013 162.37 -12.803 C 162.171 -12.592 162.072 -12.338 162.072 -12.044 C 162.072 -11.749 162.171 -11.5 162.37 -11.295 C 162.567 -11.093 162.807 -10.99 163.085 -10.99 C 163.36 -10.99 163.599 -11.093 163.798 -11.295 C 163.994 -11.5 164.093 -11.749 164.093 -12.044 M 163.896 -25.658 C 163.604 -25.588 163.333 -25.552 163.085 -25.552 C 162.845 -25.552 162.573 -25.588 162.271 -25.658 C 162.336 -23.733 162.37 -21.99 162.37 -20.431 C 162.37 -18.998 162.336 -17.424 162.271 -15.711 C 162.521 -15.767 162.793 -15.795 163.085 -15.795 C 163.4 -15.795 163.672 -15.767 163.896 -15.711 C 163.83 -17.439 163.798 -19.012 163.798 -20.431 C 163.798 -21.99 163.83 -23.733 163.896 -25.658 M 179.713 -15.711 C 179.316 -16.54 178.688 -17.986 177.83 -20.05 L 175.173 -26.437 C 174.209 -28.755 173.72 -29.989 173.481 -30.986 C 173.271 -30.945 173.046 -30.924 172.809 -30.924 C 172.583 -30.924 172.352 -30.945 172.114 -30.986 C 172.774 -29.808 173.39 -28.663 174.183 -26.711 L 174.639 -25.595 L 173.807 -23.276 C 173.413 -22.186 172.391 -19.686 170.742 -15.777 C 170.71 -15.969 170.694 -16.18 170.694 -16.408 L 170.694 -16.574 C 169.981 -16.532 169.374 -16.511 168.87 -16.511 C 168.54 -16.511 168.304 -16.519 168.157 -16.532 L 168.118 -17.586 C 168.118 -17.994 168.104 -18.738 168.079 -19.82 C 168.053 -20.903 168.038 -21.787 168.038 -22.475 C 168.038 -23.417 168.163 -24.095 168.415 -24.509 C 168.666 -24.924 169.096 -25.13 169.703 -25.13 C 170.047 -25.13 170.509 -24.982 171.091 -24.689 L 171.229 -25.151 C 170.556 -25.63 169.835 -25.868 169.07 -25.868 C 168.157 -25.868 167.51 -25.641 167.128 -25.183 C 166.743 -24.728 166.552 -23.993 166.552 -22.981 C 166.552 -22.771 166.567 -22.029 166.602 -20.758 C 166.634 -19.487 166.651 -18.316 166.651 -17.249 L 166.651 -16.532 L 166.434 -16.532 C 166.103 -16.532 165.758 -16.554 165.402 -16.597 C 165.429 -16.343 165.442 -16.16 165.442 -16.048 L 165.442 -15.879 C 165.429 -15.794 165.423 -15.74 165.423 -15.712 C 165.844 -15.752 166.268 -15.773 166.691 -15.773 L 166.691 -15.078 C 166.691 -14.629 166.677 -14.04 166.651 -13.308 C 167.272 -13.196 167.802 -13.02 168.237 -12.782 C 168.196 -13.682 168.177 -14.236 168.177 -14.446 L 168.177 -15.837 C 168.895 -15.837 169.741 -15.795 170.716 -15.715 L 170.714 -15.711 L 170.729 -15.714 L 170.754 -15.712 L 170.753 -15.719 C 171.022 -15.769 171.333 -15.795 171.685 -15.795 C 172.042 -15.795 172.359 -15.767 172.637 -15.711 C 172.98 -16.99 173.687 -19.027 174.758 -21.822 L 175.451 -23.633 L 176.165 -21.884 C 177.169 -19.413 177.909 -17.354 178.385 -15.711 C 178.584 -15.767 178.807 -15.795 179.059 -15.795 C 179.297 -15.795 179.515 -15.767 179.713 -15.711 M 31.41 -43.222 C 31.41 -44.768 30.967 -46.016 30.082 -46.962 C 29.197 -47.911 28.073 -48.385 26.713 -48.385 C 25.339 -48.385 24.212 -47.907 23.334 -46.952 C 22.454 -45.997 22.016 -44.752 22.016 -43.222 C 22.016 -41.707 22.462 -40.465 23.353 -39.502 C 24.244 -38.539 25.366 -38.06 26.713 -38.06 C 28.101 -38.06 29.229 -38.537 30.103 -39.492 C 30.975 -40.448 31.41 -41.691 31.41 -43.222 M 29.707 -43.349 C 29.707 -40.244 28.701 -38.689 26.692 -38.689 C 24.711 -38.689 23.72 -40.195 23.72 -43.201 C 23.72 -46.235 24.718 -47.754 26.713 -47.754 C 28.708 -47.754 29.707 -46.285 29.707 -43.349 M 37.693 -32.411 L 37.495 -34.054 C 37.165 -33.887 36.787 -33.801 36.366 -33.801 C 35.241 -33.801 34.681 -34.456 34.681 -35.762 C 34.681 -36.338 34.732 -37.216 34.84 -38.396 L 35.275 -38.396 C 35.474 -38.411 35.619 -38.417 35.712 -38.417 C 35.989 -38.417 36.379 -38.404 36.881 -38.374 L 36.881 -39.24 C 36.802 -39.24 36.135 -39.204 34.88 -39.133 C 34.88 -43.784 34.932 -46.805 35.037 -48.196 C 34.732 -48.126 34.443 -48.09 34.166 -48.09 C 33.914 -48.09 33.623 -48.126 33.293 -48.196 C 33.385 -47.31 33.432 -45.175 33.432 -41.79 L 33.432 -39.133 C 33.128 -39.133 32.685 -39.148 32.104 -39.176 L 32.104 -38.374 C 32.501 -38.404 32.778 -38.417 32.937 -38.417 C 33.002 -38.417 33.095 -38.411 33.214 -38.396 L 33.472 -38.396 C 33.483 -36.513 33.849 -35.03 34.562 -33.95 C 35.248 -32.911 36.161 -32.39 37.297 -32.39 C 37.47 -32.39 37.601 -32.398 37.693 -32.411 M 50.774 -43.925 C 50.774 -45.286 50.346 -46.384 49.486 -47.218 C 48.628 -48.053 47.485 -48.471 46.058 -48.471 C 44.736 -48.471 43.626 -48.098 42.729 -47.352 C 42.966 -46.607 43.111 -45.864 43.164 -45.118 C 43.784 -46.79 44.875 -47.626 46.435 -47.626 C 47.28 -47.626 47.964 -47.349 48.486 -46.794 C 49.008 -46.239 49.27 -45.484 49.27 -44.529 C 49.27 -43.854 49.103 -43.314 48.773 -42.906 C 48.482 -42.541 47.98 -42.197 47.267 -41.873 L 45.662 -41.158 C 43.903 -40.371 43.025 -39.19 43.025 -37.616 C 43.025 -36.423 43.411 -35.445 44.186 -34.688 C 44.957 -33.928 45.966 -33.55 47.207 -33.55 C 48.252 -33.55 49.256 -33.809 50.222 -34.328 C 50.022 -34.765 49.838 -35.306 49.666 -35.952 C 48.965 -34.883 48.052 -34.349 46.93 -34.349 C 46.203 -34.349 45.625 -34.585 45.196 -35.055 C 44.767 -35.525 44.551 -36.159 44.551 -36.959 C 44.551 -38.052 45.218 -38.909 46.554 -39.527 L 48.16 -40.262 C 49.085 -40.684 49.752 -41.174 50.16 -41.736 C 50.57 -42.297 50.774 -43.027 50.774 -43.925 M 60.052 -38.902 C 59.84 -39.422 59.662 -40.025 59.518 -40.715 C 58.961 -39.394 58.063 -38.733 56.821 -38.733 C 55.776 -38.733 54.965 -39.124 54.383 -39.904 C 53.801 -40.683 53.511 -41.789 53.511 -43.222 C 53.511 -44.598 53.824 -45.684 54.452 -46.479 C 55.079 -47.272 55.915 -47.669 56.959 -47.669 C 58.017 -47.669 59.015 -47.163 59.952 -46.151 C 59.926 -46.544 59.913 -46.804 59.913 -46.931 C 59.913 -47.127 59.92 -47.27 59.933 -47.353 C 59.087 -48.055 57.957 -48.407 56.544 -48.407 C 55.156 -48.407 54.039 -47.936 53.194 -46.994 C 52.348 -46.052 51.925 -44.803 51.925 -43.243 C 51.925 -41.67 52.371 -40.413 53.263 -39.472 C 54.154 -38.53 55.341 -38.06 56.821 -38.06 C 57.957 -38.06 59.034 -38.34 60.052 -38.902 M 63.48 -34.583 C 63.48 -34.876 63.382 -35.128 63.184 -35.341 C 62.985 -35.55 62.747 -35.656 62.47 -35.656 C 62.192 -35.656 61.953 -35.55 61.757 -35.341 C 61.559 -35.128 61.459 -34.876 61.459 -34.583 C 61.459 -34.288 61.559 -34.038 61.757 -33.833 C 61.953 -33.631 62.192 -33.528 62.47 -33.528 C 62.747 -33.528 62.985 -33.631 63.184 -33.833 C 63.382 -34.038 63.48 -34.288 63.48 -34.583 M 63.282 -48.195 C 62.991 -48.126 62.721 -48.09 62.47 -48.09 C 62.231 -48.09 61.96 -48.126 61.657 -48.195 C 61.723 -46.271 61.757 -44.529 61.757 -42.969 C 61.757 -41.536 61.723 -39.962 61.657 -38.249 C 61.907 -38.305 62.18 -38.333 62.47 -38.333 C 62.787 -38.333 63.058 -38.305 63.282 -38.249 C 63.216 -39.978 63.184 -41.55 63.184 -42.969 C 63.184 -44.529 63.216 -46.271 63.282 -48.195 M 73.807 -42.633 L 73.807 -42.863 C 73.794 -42.961 73.788 -43.04 73.788 -43.096 L 66.969 -43.096 L 66.969 -43.159 C 66.969 -46.082 68.079 -47.542 70.299 -47.542 C 71.437 -47.542 72.453 -47.073 73.352 -46.129 C 73.325 -46.495 73.312 -46.762 73.312 -46.931 L 73.312 -47.184 C 72.28 -47.985 71.158 -48.385 69.941 -48.385 C 68.555 -48.385 67.428 -47.907 66.563 -46.953 C 65.696 -45.996 65.264 -44.761 65.264 -43.242 C 65.264 -41.669 65.68 -40.409 66.513 -39.46 C 67.346 -38.512 68.448 -38.04 69.823 -38.04 C 71.092 -38.04 72.072 -38.434 72.767 -39.229 C 73.46 -40.022 73.807 -41.157 73.807 -42.633 M 72.222 -42.358 L 72.222 -41.998 C 72.222 -40.953 71.999 -40.136 71.558 -39.55 C 71.115 -38.963 70.511 -38.669 69.744 -38.669 C 68.991 -38.669 68.356 -38.996 67.841 -39.644 C 67.326 -40.338 67.049 -41.241 67.009 -42.358 Z M 83.54 -48.195 C 83.235 -48.126 82.964 -48.09 82.728 -48.09 C 82.488 -48.09 82.218 -48.126 81.913 -48.195 C 81.993 -46.721 82.033 -44.733 82.033 -42.23 C 82.033 -40.153 81.279 -39.112 79.773 -39.112 C 78.994 -39.112 78.378 -39.415 77.929 -40.019 C 77.479 -40.623 77.256 -41.719 77.256 -43.306 L 77.256 -44.255 C 77.256 -46.166 77.276 -47.478 77.316 -48.195 C 77.012 -48.126 76.734 -48.09 76.481 -48.09 C 76.245 -48.09 75.974 -48.126 75.67 -48.195 C 75.722 -47.408 75.749 -46.186 75.749 -44.529 L 75.749 -43.033 C 75.749 -40.841 75.722 -39.246 75.67 -38.249 C 75.922 -38.305 76.192 -38.333 76.481 -38.333 C 76.787 -38.333 77.045 -38.305 77.256 -38.249 C 77.229 -38.756 77.216 -39.112 77.216 -39.323 C 77.216 -39.407 77.222 -39.534 77.237 -39.702 L 77.237 -40.083 C 77.989 -38.719 79.026 -38.04 80.349 -38.04 C 82.462 -38.04 83.52 -39.295 83.52 -41.809 C 83.52 -42.162 83.513 -42.678 83.5 -43.36 C 83.487 -44.04 83.48 -44.543 83.48 -44.866 C 83.48 -45.906 83.5 -47.017 83.54 -48.195 M 93.449 -38.902 C 93.238 -39.422 93.061 -40.025 92.914 -40.715 C 92.36 -39.394 91.461 -38.733 90.22 -38.733 C 89.175 -38.733 88.362 -39.124 87.781 -39.904 C 87.2 -40.683 86.909 -41.789 86.909 -43.222 C 86.909 -44.598 87.223 -45.684 87.852 -46.479 C 88.479 -47.272 89.313 -47.669 90.358 -47.669 C 91.415 -47.669 92.412 -47.163 93.351 -46.151 C 93.325 -46.544 93.311 -46.804 93.311 -46.931 C 93.311 -47.127 93.317 -47.27 93.331 -47.353 C 92.484 -48.055 91.355 -48.407 89.941 -48.407 C 88.554 -48.407 87.438 -47.936 86.592 -46.994 C 85.746 -46.052 85.322 -44.803 85.322 -43.243 C 85.322 -41.67 85.77 -40.413 86.661 -39.472 C 87.554 -38.53 88.739 -38.06 90.22 -38.06 C 91.355 -38.06 92.433 -38.34 93.449 -38.902 M 102.667 -42.633 L 102.667 -42.863 C 102.653 -42.961 102.647 -43.04 102.647 -43.096 L 95.828 -43.096 L 95.828 -43.159 C 95.828 -46.082 96.938 -47.542 99.159 -47.542 C 100.296 -47.542 101.313 -47.073 102.212 -46.129 C 102.185 -46.495 102.172 -46.762 102.172 -46.931 L 102.172 -47.184 C 101.14 -47.985 100.018 -48.385 98.801 -48.385 C 97.414 -48.385 96.287 -47.907 95.423 -46.953 C 94.556 -45.996 94.124 -44.761 94.124 -43.242 C 94.124 -41.669 94.54 -40.409 95.373 -39.46 C 96.205 -38.512 97.309 -38.04 98.684 -38.04 C 99.952 -38.04 100.932 -38.434 101.626 -39.229 C 102.319 -40.022 102.667 -41.157 102.667 -42.633 M 101.081 -42.358 L 101.081 -41.998 C 101.081 -40.953 100.859 -40.136 100.417 -39.55 C 99.975 -38.963 99.37 -38.669 98.603 -38.669 C 97.851 -38.669 97.216 -38.996 96.701 -39.644 C 96.187 -40.338 95.908 -41.241 95.868 -42.358 Z M 117.195 -47.858 C 116.483 -48.083 115.94 -48.196 115.57 -48.196 C 114.963 -48.196 114.599 -47.789 114.48 -46.973 C 113.635 -47.915 112.649 -48.385 111.527 -48.385 C 109.703 -48.385 108.791 -47.521 108.791 -45.793 C 108.791 -44.317 109.557 -43.404 111.091 -43.054 C 111.816 -42.899 112.55 -42.744 113.29 -42.589 C 113.912 -42.449 114.328 -42.283 114.538 -42.085 L 114.538 -41.641 C 114.538 -40.7 114.371 -40.005 114.035 -39.555 C 113.697 -39.104 113.131 -38.88 112.34 -38.88 C 111.256 -38.88 110.402 -39.38 109.782 -40.376 L 109.623 -40.376 L 109.663 -39.261 C 110.548 -38.473 111.614 -38.079 112.854 -38.079 C 113.965 -38.079 114.765 -38.365 115.253 -38.933 C 115.741 -39.501 115.985 -40.398 115.985 -41.62 L 115.985 -41.874 L 115.908 -46.068 C 115.908 -46.544 115.94 -46.869 116.007 -47.037 C 116.124 -47.318 116.383 -47.457 116.779 -47.457 C 116.926 -47.457 117.038 -47.451 117.116 -47.437 Z M 114.501 -45.687 L 114.501 -42.969 C 112.94 -43.25 111.903 -43.532 111.39 -43.813 C 110.741 -44.163 110.417 -44.733 110.417 -45.52 C 110.417 -46.854 111.005 -47.521 112.181 -47.521 C 112.921 -47.521 113.582 -47.212 114.163 -46.594 C 114.388 -46.356 114.501 -46.053 114.501 -45.687 M 126.61 -48.195 C 126.307 -48.126 126.035 -48.09 125.798 -48.09 C 125.562 -48.09 125.29 -48.126 124.985 -48.195 C 125.064 -46.721 125.104 -44.733 125.104 -42.23 C 125.104 -40.153 124.35 -39.112 122.845 -39.112 C 122.064 -39.112 121.449 -39.415 121.001 -40.019 C 120.552 -40.623 120.328 -41.719 120.328 -43.306 L 120.328 -44.255 C 120.328 -46.166 120.347 -47.478 120.388 -48.195 C 120.083 -48.126 119.805 -48.09 119.554 -48.09 C 119.316 -48.09 119.045 -48.126 118.741 -48.195 C 118.794 -47.408 118.821 -46.186 118.821 -44.529 L 118.821 -43.033 C 118.821 -40.841 118.794 -39.246 118.741 -38.249 C 118.993 -38.305 119.265 -38.333 119.554 -38.333 C 119.858 -38.333 120.116 -38.305 120.328 -38.249 C 120.301 -38.756 120.288 -39.112 120.288 -39.323 C 120.288 -39.407 120.294 -39.534 120.308 -39.702 L 120.308 -40.083 C 121.062 -38.719 122.099 -38.04 123.419 -38.04 C 125.533 -38.04 126.591 -39.295 126.591 -41.809 C 126.591 -42.162 126.585 -42.678 126.57 -43.36 C 126.558 -44.04 126.552 -44.543 126.552 -44.866 C 126.552 -45.906 126.57 -47.017 126.61 -48.195 M 137.413 -48.195 C 137.109 -48.125 136.832 -48.09 136.581 -48.09 C 136.329 -48.09 136.052 -48.125 135.749 -48.195 C 135.774 -47.663 135.789 -47.247 135.789 -46.952 C 135.789 -46.601 135.781 -46.335 135.769 -46.151 C 135.041 -47.64 133.91 -48.385 132.379 -48.385 C 131.188 -48.385 130.228 -47.934 129.494 -47.027 C 128.761 -46.121 128.395 -44.908 128.395 -43.391 C 128.395 -41.789 128.787 -40.5 129.575 -39.523 C 130.36 -38.546 131.367 -38.059 132.596 -38.059 C 133.957 -38.059 135.002 -38.705 135.729 -39.998 C 135.729 -39.295 135.734 -38.523 135.749 -37.68 L 135.749 -36.206 C 135.749 -34.883 135.729 -33.611 135.687 -32.39 C 136.032 -32.487 136.315 -32.539 136.54 -32.539 C 136.779 -32.539 137.057 -32.487 137.373 -32.39 C 137.32 -34.063 137.294 -36.318 137.294 -39.155 C 137.294 -42.486 137.335 -45.498 137.413 -48.195 M 135.769 -42.927 C 135.769 -41.62 135.523 -40.616 135.035 -39.914 C 134.546 -39.211 133.864 -38.86 132.993 -38.86 C 132.067 -38.86 131.345 -39.246 130.823 -40.019 C 130.301 -40.793 130.04 -41.896 130.04 -43.328 C 130.04 -44.69 130.28 -45.74 130.764 -46.479 C 131.246 -47.216 131.917 -47.585 132.775 -47.585 C 133.727 -47.585 134.463 -47.188 134.985 -46.394 C 135.506 -45.601 135.769 -44.446 135.769 -42.927 M 153.865 -35.045 C 153.825 -34.833 153.806 -34.624 153.806 -34.412 C 153.806 -34.19 153.825 -33.985 153.865 -33.8 C 152.028 -33.845 150.271 -33.866 148.592 -33.866 C 146.941 -33.866 145.361 -33.845 143.854 -33.8 C 143.882 -34.084 143.896 -34.301 143.896 -34.455 C 143.896 -34.597 143.882 -34.793 143.854 -35.045 C 144.713 -34.877 145.929 -34.793 147.502 -34.793 L 148.038 -34.793 L 148.038 -38.312 C 148.038 -41.037 148.005 -44.333 147.938 -48.196 C 148.164 -48.168 148.479 -48.154 148.89 -48.154 C 149.299 -48.154 149.598 -48.168 149.781 -48.196 C 149.716 -44.964 149.683 -42.07 149.683 -39.514 C 149.683 -37.532 149.716 -35.959 149.781 -34.793 L 150.357 -34.793 C 151.811 -34.793 152.979 -34.877 153.865 -35.045 M 160.823 -42.633 L 160.823 -42.863 C 160.809 -42.961 160.802 -43.04 160.802 -43.096 L 153.984 -43.096 L 153.984 -43.159 C 153.984 -46.082 155.094 -47.542 157.313 -47.542 C 158.451 -47.542 159.467 -47.073 160.366 -46.129 C 160.341 -46.495 160.326 -46.762 160.326 -46.931 L 160.326 -47.184 C 159.297 -47.985 158.172 -48.385 156.956 -48.385 C 155.569 -48.385 154.441 -47.907 153.577 -46.953 C 152.71 -45.996 152.279 -44.761 152.279 -43.242 C 152.279 -41.669 152.695 -40.409 153.527 -39.46 C 154.36 -38.512 155.465 -38.04 156.837 -38.04 C 158.107 -38.04 159.088 -38.434 159.782 -39.229 C 160.476 -40.022 160.823 -41.157 160.823 -42.633 M 159.236 -42.358 L 159.236 -41.998 C 159.236 -40.953 159.016 -40.136 158.572 -39.55 C 158.13 -38.963 157.526 -38.669 156.76 -38.669 C 156.006 -38.669 155.372 -38.996 154.855 -39.644 C 154.341 -40.338 154.063 -41.241 154.022 -42.358 Z M 170.019 -38.902 C 169.809 -39.422 169.629 -40.025 169.483 -40.715 C 168.93 -39.394 168.031 -38.733 166.788 -38.733 C 165.745 -38.733 164.933 -39.124 164.352 -39.904 C 163.768 -40.683 163.479 -41.789 163.479 -43.222 C 163.479 -44.598 163.792 -45.684 164.421 -46.479 C 165.048 -47.272 165.883 -47.669 166.927 -47.669 C 167.984 -47.669 168.982 -47.163 169.92 -46.151 C 169.894 -46.544 169.881 -46.804 169.881 -46.931 C 169.881 -47.127 169.887 -47.27 169.9 -47.353 C 169.054 -48.055 167.925 -48.407 166.511 -48.407 C 165.123 -48.407 164.007 -47.936 163.161 -46.994 C 162.315 -46.052 161.893 -44.803 161.893 -43.243 C 161.893 -41.67 162.337 -40.413 163.23 -39.472 C 164.123 -38.53 165.309 -38.06 166.788 -38.06 C 167.925 -38.06 169.002 -38.34 170.019 -38.902 M 179.336 -48.195 C 179.044 -48.126 178.775 -48.09 178.523 -48.09 C 178.286 -48.09 178.015 -48.126 177.711 -48.195 C 177.775 -45.625 177.81 -43.757 177.81 -42.589 C 177.81 -41.383 177.637 -40.5 177.292 -39.944 C 176.945 -39.391 176.364 -39.112 175.541 -39.112 C 174.573 -39.112 173.862 -39.576 173.41 -40.503 C 173.146 -41.052 173.013 -42.295 173.013 -44.233 L 173.013 -45.73 C 173.013 -46.235 173.033 -47.058 173.072 -48.195 C 172.772 -48.126 172.498 -48.09 172.25 -48.09 C 172.015 -48.09 171.754 -48.126 171.466 -48.195 C 171.531 -45.021 171.565 -42.386 171.565 -40.293 C 171.565 -37.792 171.531 -35.159 171.466 -32.39 C 171.857 -32.446 172.132 -32.475 172.289 -32.475 C 172.485 -32.475 172.753 -32.446 173.093 -32.39 C 173.038 -33.964 173.013 -35.529 173.013 -37.089 C 173.013 -37.666 173.026 -38.629 173.053 -39.978 C 173.86 -38.699 174.888 -38.06 176.134 -38.06 C 178.255 -38.06 179.316 -39.281 179.316 -41.727 C 179.316 -41.994 179.307 -42.488 179.285 -43.212 C 179.266 -43.936 179.257 -44.522 179.257 -44.971 C 179.257 -45.239 179.284 -46.313 179.336 -48.195 M 189.782 -48.195 C 189.479 -48.126 189.207 -48.09 188.97 -48.09 C 188.731 -48.09 188.46 -48.126 188.158 -48.195 C 188.235 -46.721 188.275 -44.733 188.275 -42.23 C 188.275 -40.153 187.521 -39.112 186.016 -39.112 C 185.236 -39.112 184.621 -39.415 184.172 -40.019 C 183.723 -40.623 183.499 -41.719 183.499 -43.306 L 183.499 -44.255 C 183.499 -46.166 183.518 -47.478 183.557 -48.195 C 183.253 -48.126 182.976 -48.09 182.725 -48.09 C 182.487 -48.09 182.215 -48.126 181.911 -48.195 C 181.965 -47.408 181.992 -46.186 181.992 -44.529 L 181.992 -43.033 C 181.992 -40.841 181.965 -39.246 181.911 -38.249 C 182.163 -38.305 182.434 -38.333 182.725 -38.333 C 183.029 -38.333 183.287 -38.305 183.499 -38.249 C 183.474 -38.756 183.458 -39.112 183.458 -39.323 C 183.458 -39.407 183.464 -39.534 183.479 -39.702 L 183.479 -40.083 C 184.232 -38.719 185.268 -38.04 186.59 -38.04 C 188.703 -38.04 189.763 -39.295 189.763 -41.809 C 189.763 -42.162 189.755 -42.678 189.741 -43.36 C 189.729 -44.04 189.722 -44.543 189.722 -44.866 C 189.722 -45.906 189.741 -47.017 189.782 -48.195 M 200.981 -43.222 C 200.981 -44.768 200.539 -46.016 199.651 -46.962 C 198.766 -47.911 197.644 -48.385 196.284 -48.385 C 194.909 -48.385 193.78 -47.907 192.904 -46.952 C 192.024 -45.997 191.586 -44.752 191.586 -43.222 C 191.586 -41.707 192.03 -40.465 192.924 -39.502 C 193.817 -38.539 194.936 -38.06 196.284 -38.06 C 197.672 -38.06 198.801 -38.537 199.672 -39.492 C 200.543 -40.448 200.981 -41.691 200.981 -43.222 M 199.275 -43.349 C 199.275 -40.244 198.271 -38.689 196.265 -38.689 C 194.28 -38.689 193.289 -40.195 193.289 -43.201 C 193.289 -46.235 194.287 -47.754 196.284 -47.754 C 198.279 -47.754 199.275 -46.285 199.275 -43.349 M 204.447 -48.195 C 204.159 -48.155 203.876 -48.133 203.596 -48.133 C 203.334 -48.133 203.069 -48.155 202.805 -48.195 C 202.856 -47.254 202.884 -45.203 202.884 -42.042 L 202.884 -36.52 C 202.884 -34.54 202.856 -33.163 202.805 -32.39 C 203.148 -32.42 203.411 -32.432 203.596 -32.432 C 203.795 -32.432 204.078 -32.42 204.447 -32.39 C 204.384 -33.682 204.351 -35.845 204.351 -38.881 C 204.351 -43.559 204.384 -46.664 204.447 -48.195 M 215.669 -43.222 C 215.669 -44.768 215.226 -46.016 214.341 -46.962 C 213.454 -47.911 212.33 -48.385 210.973 -48.385 C 209.597 -48.385 208.47 -47.907 207.59 -46.952 C 206.711 -45.997 206.273 -44.752 206.273 -43.222 C 206.273 -41.707 206.718 -40.465 207.611 -39.502 C 208.503 -38.539 209.623 -38.06 210.973 -38.06 C 212.357 -38.06 213.489 -38.537 214.36 -39.492 C 215.231 -40.448 215.669 -41.691 215.669 -43.222 M 213.963 -43.349 C 213.963 -40.244 212.961 -38.689 210.949 -38.689 C 208.968 -38.689 207.977 -40.195 207.977 -43.201 C 207.977 -46.235 208.974 -47.754 210.973 -47.754 C 212.967 -47.754 213.963 -46.285 213.963 -43.349 M 223.816 -50.409 C 223.816 -49.494 223.518 -48.884 222.923 -48.575 C 222.42 -48.323 221.468 -48.196 220.069 -48.196 C 219.95 -48.196 219.746 -48.21 219.453 -48.237 C 218.292 -48.63 217.709 -49.453 217.709 -50.704 C 217.709 -51.491 217.96 -52.13 218.465 -52.622 C 218.964 -53.113 219.626 -53.359 220.444 -53.359 C 221.437 -53.359 222.246 -53.083 222.873 -52.528 C 223.499 -51.972 223.816 -51.265 223.816 -50.409 M 222.665 -41.389 C 222.665 -39.534 221.981 -38.607 220.612 -38.607 C 219.955 -38.607 219.423 -38.863 219.015 -39.376 C 218.607 -39.889 218.404 -40.56 218.404 -41.389 C 218.404 -42.273 218.602 -42.958 218.995 -43.443 C 219.39 -43.929 219.927 -44.17 220.612 -44.17 C 221.981 -44.17 222.665 -43.243 222.665 -41.389 M 233.885 -38.249 C 233.488 -39.077 232.859 -40.524 232.002 -42.589 L 229.345 -48.974 C 228.38 -51.294 227.78 -52.951 227.54 -53.949 C 227.329 -53.906 227.106 -53.885 226.867 -53.885 C 226.644 -53.885 226.411 -53.906 226.174 -53.949 C 226.834 -52.77 227.559 -51.202 228.354 -49.249 L 228.809 -48.133 L 227.978 -45.813 C 227.591 -44.745 226.599 -42.317 225.003 -38.532 L 225.003 -39.006 C 224.569 -38.966 224.159 -38.944 223.775 -38.944 L 223.378 -38.944 C 223.893 -39.676 224.152 -40.476 224.152 -41.347 C 224.152 -42.399 223.832 -43.225 223.191 -43.821 C 222.549 -44.419 221.675 -44.718 220.563 -44.718 C 220.393 -44.718 220.186 -44.705 219.938 -44.675 C 219.694 -44.648 219.539 -44.635 219.473 -44.635 C 218.853 -44.635 218.541 -44.964 218.541 -45.625 C 218.541 -46.396 219.056 -46.783 220.09 -46.783 C 220.075 -46.783 220.194 -46.778 220.444 -46.762 L 221.198 -46.762 C 222.599 -46.762 223.597 -46.953 224.19 -47.33 C 224.853 -47.768 225.182 -48.532 225.182 -49.629 C 225.182 -50.92 224.719 -51.972 223.793 -52.779 C 222.869 -53.586 221.646 -53.993 220.128 -53.993 C 219.019 -53.993 218.143 -53.713 217.501 -53.159 C 216.859 -52.604 216.54 -51.87 216.54 -50.957 C 216.54 -49.58 217.275 -48.63 218.74 -48.112 C 217.736 -47.873 217.232 -47.282 217.232 -46.342 C 217.232 -45.597 217.757 -44.943 218.799 -44.381 C 217.479 -43.933 216.819 -42.99 216.819 -41.557 C 216.819 -40.489 217.171 -39.633 217.878 -38.985 C 218.584 -38.34 219.547 -38.017 220.762 -38.017 C 221.119 -38.017 221.553 -38.055 222.059 -38.132 C 222.568 -38.21 222.909 -38.249 223.08 -38.249 C 223.424 -38.249 224.065 -38.192 225.003 -38.079 L 225.003 -38.271 C 225.254 -38.312 225.536 -38.333 225.854 -38.333 C 226.213 -38.333 226.531 -38.305 226.809 -38.249 C 227.15 -39.528 227.857 -41.565 228.929 -44.36 L 229.622 -46.172 L 230.334 -44.423 C 231.34 -41.95 232.081 -39.893 232.555 -38.249 C 232.754 -38.305 232.979 -38.333 233.229 -38.333 C 233.469 -38.333 233.687 -38.305 233.885 -38.249 M 40.926 -11.263 C 40.081 -13.906 38.574 -18.702 36.407 -25.658 C 36.195 -25.602 35.964 -25.573 35.714 -25.573 C 35.437 -25.573 35.196 -25.608 35 -25.678 C 34.021 -22.097 32.806 -18.162 31.353 -13.878 L 27.645 -25.658 C 27.381 -25.588 27.15 -25.552 26.951 -25.552 C 26.754 -25.552 26.522 -25.588 26.258 -25.658 C 25.24 -22.077 23.827 -17.277 22.017 -11.263 C 22.293 -11.32 22.61 -11.349 22.967 -11.349 C 23.325 -11.349 23.642 -11.32 23.92 -11.263 C 25.003 -15.522 26.146 -19.65 27.349 -23.656 C 28.724 -19.65 29.965 -15.522 31.075 -11.263 C 31.272 -11.32 31.483 -11.349 31.708 -11.349 C 31.946 -11.349 32.165 -11.32 32.363 -11.263 C 33.526 -15.311 34.795 -19.371 36.169 -23.445 C 37.477 -19.454 38.627 -15.393 39.617 -11.263 C 39.816 -11.32 40.028 -11.349 40.252 -11.349 C 40.503 -11.349 40.729 -11.32 40.926 -11.263 M 10.174 8.898 L 10.174 8.898 L 11.399 7.673 L 11.399 -52.33 L -48.599 -52.33 L -49.823 -51.106 L 10.174 -51.106 Z" style="fill: rgb(155, 156, 159); fill-rule: evenodd; fill-opacity: 1;" transform="matrix(1, 0, 0, -1, 403.665009, 409.892822)"/>
</svg>